<svg width="500" height="500" xmlns="http://www.w3.org/2000/svg" xml:space="preserve" version="1.1">

 <g>
  <title>Layer 1</title>
  <g id="OBJECTS">
   <g id="svg_2">
    <ellipse id="svg_3" fill="#D9E4F5" ry="26.703" rx="223.072" cy="396.423" cx="246.46"/>
   </g>
   <g id="svg_4">
    <path id="svg_5" fill="#D9E4F5" d="m133.79,84.352c0,1.054 -0.43,2.016 -1.13,2.711c-0.691,0.7 -1.653,1.13 -2.707,1.13l-82.113,0c-2.109,0 -3.837,-1.728 -3.837,-3.841c0,-1.055 0.43,-2.016 1.13,-2.711c0.691,-0.7 1.653,-1.13 2.707,-1.13l3.881,0c1.533,-3.562 5.073,-6.052 9.193,-6.052c2.773,0 5.281,1.13 7.097,2.951c2.419,-4.103 6.88,-6.858 11.989,-6.858c1.405,0 2.756,0.213 4.032,0.598c2.672,-5.024 7.953,-8.444 14.04,-8.444c7.31,0 13.46,4.936 15.316,11.652c1.347,-0.673 2.866,-1.059 4.479,-1.059c4.559,0 8.405,3.044 9.614,7.212l2.472,0c2.109,0 3.837,1.728 3.837,3.841z"/>
    <path id="svg_6" fill="#D9E4F5" d="m429.149,86.176c0,1.054 -0.43,2.016 -1.13,2.711c-0.691,0.7 -1.653,1.13 -2.707,1.13l-82.113,0c-2.109,0 -3.837,-1.728 -3.837,-3.841c0,-1.055 0.43,-2.016 1.13,-2.711c0.691,-0.7 1.652,-1.13 2.707,-1.13l3.881,0c1.533,-3.562 5.073,-6.052 9.193,-6.052c2.773,0 5.281,1.13 7.098,2.951c2.419,-4.103 6.88,-6.858 11.989,-6.858c1.404,0 2.756,0.213 4.032,0.598c2.671,-5.024 7.952,-8.444 14.04,-8.444c7.31,0 13.46,4.936 15.316,11.652c1.347,-0.673 2.866,-1.059 4.479,-1.059c4.559,0 8.405,3.044 9.614,7.213l2.472,0c2.108,-0.001 3.836,1.727 3.836,3.84z"/>
    <path id="svg_7" fill="#D9E4F5" d="m295.455,111.887c0,1.055 -0.43,2.016 -1.13,2.711c-0.691,0.7 -1.652,1.13 -2.707,1.13l-82.113,0c-2.109,0 -3.837,-1.728 -3.837,-3.841c0,-1.054 0.43,-2.016 1.13,-2.711c0.691,-0.7 1.653,-1.13 2.707,-1.13l3.881,0c1.533,-3.562 5.073,-6.052 9.193,-6.052c2.773,0 5.281,1.13 7.098,2.951c2.419,-4.103 6.88,-6.858 11.989,-6.858c1.404,0 2.756,0.213 4.032,0.598c2.671,-5.024 7.953,-8.444 14.04,-8.444c7.31,0 13.46,4.936 15.316,11.652c1.347,-0.674 2.866,-1.059 4.479,-1.059c4.559,0 8.405,3.044 9.614,7.213l2.472,0c2.108,-0.001 3.836,1.727 3.836,3.84z"/>
   </g>
   <g id="svg_8">
    <g id="svg_9">
     <path id="svg_10" fill="#C7D9ED" d="m399.631,263.908c4.709,-8.416 13.715,-26.086 17.589,-44.333c5.787,-27.265 18.681,-28.466 23.392,-20.66c12.939,21.437 -22.092,58.184 -33.225,69.027l-7.756,-4.034z"/>
     <g id="svg_11">
      <path id="svg_12" fill="#B4CAE3" d="m402.584,265.444c8.625,-11.005 15.168,-23.075 19.408,-31.981c5.63,-11.825 8.526,-20.774 8.555,-20.865c0.103,-0.321 0.448,-0.498 0.77,-0.394c0.322,0.102 0.5,0.447 0.395,0.769c-0.028,0.09 -2.945,9.102 -8.606,20.998c-4.245,8.921 -10.79,20.999 -19.418,32.047l-1.104,-0.574z"/>
     </g>
    </g>
    <g id="svg_13">
     <path id="svg_14" fill="#C7D9ED" d="m90.694,344.265c-4.32,-8.622 -12.511,-26.684 -15.549,-45.089c-4.538,-27.501 -17.363,-29.288 -22.425,-21.706c-13.903,20.824 19.415,59.131 30.043,70.471l7.931,-3.676z"/>
     <g id="svg_15">
      <path id="svg_16" fill="#B4CAE3" d="m87.675,345.665c-8.114,-11.387 -14.1,-23.742 -17.929,-32.832c-5.085,-12.07 -7.57,-21.142 -7.595,-21.234c-0.088,-0.325 -0.425,-0.518 -0.751,-0.428c-0.326,0.087 -0.519,0.424 -0.43,0.75c0.023,0.091 2.527,9.227 7.639,21.368c3.834,9.106 9.821,21.469 17.936,32.899l1.13,-0.523z"/>
     </g>
    </g>
    <g id="svg_17">
     <path id="svg_18" fill="#D9E4F5" d="m101.245,369.332c-9.327,-9.401 -29.701,-31.437 -42.537,-56.454c-18.42,-35.903 -36.891,-32.694 -40.515,-20.002c-9.374,32.824 45.837,68.497 68.73,81.674l14.322,-5.218z"/>
     <g id="svg_19">
      <path id="svg_20" fill="#C7D9ED" d="m96.203,371.169c-16.074,-12.055 -29.664,-26.315 -38.898,-37.077c-12.349,-14.389 -19.787,-25.796 -19.862,-25.911c-0.266,-0.409 -0.815,-0.526 -1.225,-0.258c-0.411,0.265 -0.528,0.814 -0.26,1.224c0.072,0.115 7.564,11.602 19.983,26.078c9.122,10.634 22.472,24.663 38.279,36.667l1.983,-0.723z"/>
     </g>
    </g>
    <g id="svg_21">
     <path id="svg_22" fill="#D9E4F5" d="m393.007,281.01c9.746,-8.966 31.104,-30.049 45.068,-54.455c20.038,-35.025 38.344,-30.977 41.385,-18.133c7.867,33.217 -48.913,66.335 -72.383,78.455l-14.07,-5.867z"/>
     <g id="svg_23">
      <path id="svg_24" fill="#C7D9ED" d="m397.96,283.075c16.607,-11.309 30.833,-24.935 40.548,-35.264c12.992,-13.811 20.943,-24.867 21.023,-24.979c0.284,-0.397 0.838,-0.488 1.236,-0.202c0.399,0.283 0.491,0.837 0.204,1.235c-0.077,0.111 -8.085,11.244 -21.151,25.139c-9.597,10.207 -23.573,23.613 -39.912,34.883l-1.948,-0.812z"/>
     </g>
    </g>
    <g id="svg_25">
     <path id="svg_26" fill="#D9E4F5" d="m112.608,226.474c-9.653,-5.751 -31.058,-19.547 -46.898,-37.388c-22.732,-25.604 -37.231,-19.059 -37.524,-7.863c-0.757,28.955 52.158,46.586 73.757,52.569l10.665,-7.318z"/>
     <g id="svg_27">
      <path id="svg_28" fill="#C7D9ED" d="m108.854,229.05c-15.759,-6.504 -29.943,-15.347 -39.808,-22.236c-13.192,-9.211 -21.717,-17.01 -21.803,-17.089c-0.305,-0.28 -0.781,-0.26 -1.061,0.047c-0.282,0.305 -0.262,0.781 0.045,1.061c0.084,0.079 8.67,7.932 21.937,17.2c9.745,6.808 23.684,15.511 39.213,22.03l1.477,-1.013z"/>
     </g>
    </g>
    <path id="svg_29" fill="#C7D9ED" d="m164.619,115.769c1.603,-15.011 0.355,-29.52 -7.116,-25.941c-7.478,3.581 -4.857,28.508 5.31,44.949l2.121,6.42c-7.2,-12.111 -21.567,-22.372 -27.463,-18.537c-5.859,3.811 4.324,9.773 14.533,13.667c7.771,2.964 12.18,6.686 14.227,8.794l10.018,30.322c-11.457,-19.147 -34.15,-35.318 -43.48,-29.25c-9.297,6.047 6.861,15.507 23.06,21.686c12.241,4.669 19.229,10.526 22.508,13.884l1.997,6.046c1.103,-0.182 2.204,-0.37 3.304,-0.565l-11.918,-36.074c0.801,-3.097 2.389,-7.337 5.537,-12.268c5.88,-9.21 10.507,-20.064 3.531,-19.635c-6.055,0.373 -10.924,12.918 -11.231,25.353l-4.122,-12.476c-0.617,-4.078 -1.508,-9.897 -0.816,-16.375z"/>
    <path id="svg_30" fill="#D9E4F5" d="m454.974,281.544c4.052,-14.543 10.569,-27.565 16.191,-21.482c5.627,6.089 -6.011,28.287 -21.53,39.813l-4.341,5.183c11.163,-8.597 28.303,-12.829 32.367,-7.087c4.038,5.705 -7.627,7.486 -18.552,7.335c-8.317,-0.114 -13.787,1.717 -16.469,2.92l-20.505,24.48c17.716,-13.564 44.777,-20.215 51.207,-11.131c6.408,9.053 -12.101,11.878 -29.437,11.639c-13.1,-0.18 -21.756,2.683 -26.044,4.593l-4.088,4.881c-0.958,-0.576 -1.912,-1.158 -2.862,-1.745l24.395,-29.125c0.399,-3.174 0.489,-7.701 -0.616,-13.445c-2.064,-10.73 -2.357,-22.526 3.968,-19.551c5.489,2.582 5.383,16.038 1.077,27.708l8.436,-10.072c2.078,-3.559 5.055,-8.637 6.803,-14.914z"/>
   </g>
   <g id="svg_31">
    <g id="svg_32">
     <g id="svg_33">
      <g id="svg_34">
       <g id="svg_35">
        <path id="svg_36" fill="#007EFF" d="m433.537,169.652c-2.68,0 -4.86,-2.18 -4.86,-4.86c0,-2.68 2.18,-4.86 4.86,-4.86c2.68,0 4.86,2.18 4.86,4.86c0,2.68 -2.18,4.86 -4.86,4.86zm0,-8.195c-1.839,0 -3.335,1.496 -3.335,3.335c0,1.839 1.496,3.335 3.335,3.335c1.839,0 3.335,-1.496 3.335,-3.335c0.001,-1.839 -1.496,-3.335 -3.335,-3.335z"/>
       </g>
       <g id="svg_37">
        <g id="svg_38">
         <path id="svg_39" fill="#0060E6" d="m458.238,174.597c-2.68,0 -4.86,-2.18 -4.86,-4.86c0,-2.68 2.18,-4.86 4.86,-4.86c2.68,0 4.86,2.18 4.86,4.86c0.001,2.68 -2.18,4.86 -4.86,4.86zm0,-8.196c-1.839,0 -3.335,1.496 -3.335,3.335c0,1.839 1.496,3.335 3.335,3.335c1.839,0 3.335,-1.496 3.335,-3.335c0.001,-1.839 -1.496,-3.335 -3.335,-3.335z"/>
        </g>
       </g>
       <g id="svg_40">
        <g id="svg_41">
         <g id="svg_42">
          <path id="svg_43" fill="#007EFF" d="m469.943,184.52c-0.421,0 -0.762,-0.341 -0.762,-0.762l0,-3.362c0,-0.421 0.341,-0.762 0.762,-0.762c0.421,0 0.762,0.341 0.762,0.762l0,3.362c0,0.421 -0.341,0.762 -0.762,0.762z"/>
         </g>
         <g id="svg_44">
          <path id="svg_45" fill="#007EFF" d="m469.943,190.404c-0.421,0 -0.762,-0.341 -0.762,-0.762l0,-3.362c0,-0.421 0.341,-0.762 0.762,-0.762c0.421,0 0.762,0.341 0.762,0.762l0,3.362c0,0.42 -0.341,0.762 -0.762,0.762z"/>
         </g>
        </g>
        <g id="svg_46">
         <g id="svg_47">
          <path id="svg_48" fill="#007EFF" d="m474.662,185.781l-3.02,0c-0.421,0 -0.763,-0.342 -0.763,-0.763c0,-0.421 0.341,-0.762 0.763,-0.762l3.02,0c0.421,0 0.762,0.341 0.762,0.762c0,0.421 -0.341,0.763 -0.762,0.763z"/>
         </g>
         <g id="svg_49">
          <path id="svg_50" fill="#007EFF" d="m468.244,185.781l-3.02,0c-0.421,0 -0.762,-0.342 -0.762,-0.763c0,-0.421 0.341,-0.762 0.762,-0.762l3.02,0c0.421,0 0.762,0.341 0.762,0.762c0,0.421 -0.341,0.763 -0.762,0.763z"/>
         </g>
        </g>
       </g>
       <g id="svg_51">
        <g id="svg_52">
         <g id="svg_53">
          <g id="svg_54">
           <path id="svg_55" fill="#0060E6" d="m443.984,179.038c-0.421,0 -0.762,-0.341 -0.762,-0.762l0,-3.362c0,-0.421 0.342,-0.762 0.762,-0.762c0.421,0 0.763,0.341 0.763,0.762l0,3.362c0,0.42 -0.341,0.762 -0.763,0.762z"/>
          </g>
          <g id="svg_56">
           <path id="svg_57" fill="#0060E6" d="m443.984,184.921c-0.421,0 -0.762,-0.341 -0.762,-0.763l0,-3.362c0,-0.421 0.342,-0.762 0.762,-0.762c0.421,0 0.763,0.341 0.763,0.762l0,3.362c0,0.422 -0.341,0.763 -0.763,0.763z"/>
          </g>
         </g>
         <g id="svg_58">
          <g id="svg_59">
           <path id="svg_60" fill="#0060E6" d="m448.704,180.298l-3.02,0c-0.421,0 -0.762,-0.341 -0.762,-0.762c0,-0.421 0.341,-0.762 0.762,-0.762l3.02,0c0.421,0 0.762,0.341 0.762,0.762c0,0.421 -0.342,0.762 -0.762,0.762z"/>
          </g>
          <g id="svg_61">
           <path id="svg_62" fill="#0060E6" d="m442.286,180.298l-3.02,0c-0.421,0 -0.762,-0.341 -0.762,-0.762c0,-0.421 0.341,-0.762 0.762,-0.762l3.02,0c0.421,0 0.762,0.341 0.762,0.762c0,0.421 -0.342,0.762 -0.762,0.762z"/>
          </g>
         </g>
        </g>
       </g>
      </g>
     </g>
    </g>
    <g id="svg_63">
     <g id="svg_64">
      <g id="svg_65">
       <g id="svg_66">
        <path id="svg_67" fill="#007EFF" d="m37.705,261.52c0,2.68 -2.18,4.86 -4.86,4.86c-2.68,0 -4.86,-2.18 -4.86,-4.86c0,-2.68 2.18,-4.86 4.86,-4.86c2.68,0 4.86,2.181 4.86,4.86zm-8.196,0c0,1.839 1.496,3.335 3.335,3.335c1.839,0 3.335,-1.496 3.335,-3.335c0,-1.839 -1.496,-3.335 -3.335,-3.335c-1.839,0 -3.335,1.496 -3.335,3.335z"/>
       </g>
       <g id="svg_68">
        <g id="svg_69">
         <path id="svg_70" fill="#0060E6" d="m42.649,236.819c0,2.68 -2.18,4.86 -4.86,4.86c-2.68,0 -4.86,-2.18 -4.86,-4.86c0,-2.68 2.18,-4.86 4.86,-4.86c2.68,0 4.86,2.18 4.86,4.86zm-8.195,0c0,1.839 1.496,3.335 3.335,3.335c1.839,0 3.335,-1.496 3.335,-3.335c0,-1.839 -1.496,-3.335 -3.335,-3.335c-1.839,0 -3.335,1.496 -3.335,3.335z"/>
        </g>
       </g>
       <g id="svg_71">
        <g id="svg_72">
         <g id="svg_73">
          <path id="svg_74" fill="#007EFF" d="m52.573,225.115c0,0.421 -0.341,0.762 -0.762,0.762l-3.362,0c-0.421,0 -0.762,-0.341 -0.762,-0.762c0,-0.421 0.341,-0.762 0.762,-0.762l3.362,0c0.42,0 0.762,0.341 0.762,0.762z"/>
         </g>
         <g id="svg_75">
          <path id="svg_76" fill="#007EFF" d="m58.456,225.115c0,0.421 -0.341,0.762 -0.762,0.762l-3.362,0c-0.421,0 -0.762,-0.341 -0.762,-0.762c0,-0.421 0.341,-0.762 0.762,-0.762l3.362,0c0.421,0 0.762,0.341 0.762,0.762z"/>
         </g>
        </g>
        <g id="svg_77">
         <g id="svg_78">
          <path id="svg_79" fill="#007EFF" d="m53.833,220.396l0,3.02c0,0.421 -0.341,0.762 -0.762,0.762c-0.421,0 -0.762,-0.341 -0.762,-0.762l0,-3.02c0,-0.421 0.341,-0.762 0.762,-0.762c0.421,-0.001 0.762,0.341 0.762,0.762z"/>
         </g>
         <g id="svg_80">
          <path id="svg_81" fill="#007EFF" d="m53.833,226.814l0,3.02c0,0.421 -0.341,0.762 -0.762,0.762c-0.421,0 -0.762,-0.341 -0.762,-0.762l0,-3.02c0,-0.421 0.341,-0.762 0.762,-0.762c0.421,-0.001 0.762,0.341 0.762,0.762z"/>
         </g>
        </g>
       </g>
       <g id="svg_82">
        <g id="svg_83">
         <g id="svg_84">
          <g id="svg_85">
           <path id="svg_86" fill="#0060E6" d="m47.09,251.073c0,0.421 -0.341,0.762 -0.762,0.762l-3.362,0c-0.421,0 -0.762,-0.341 -0.762,-0.762c0,-0.421 0.341,-0.762 0.762,-0.762l3.362,0c0.421,0 0.762,0.341 0.762,0.762z"/>
          </g>
          <g id="svg_87">
           <path id="svg_88" fill="#0060E6" d="m52.974,251.073c0,0.421 -0.341,0.762 -0.763,0.762l-3.362,0c-0.421,0 -0.763,-0.341 -0.763,-0.762c0,-0.421 0.341,-0.762 0.763,-0.762l3.362,0c0.421,0 0.763,0.341 0.763,0.762z"/>
          </g>
         </g>
         <g id="svg_89">
          <g id="svg_90">
           <path id="svg_91" fill="#0060E6" d="m48.351,246.354l0,3.02c0,0.421 -0.341,0.762 -0.762,0.762c-0.421,0 -0.762,-0.341 -0.762,-0.762l0,-3.02c0,-0.421 0.341,-0.762 0.762,-0.762c0.421,0 0.762,0.341 0.762,0.762z"/>
          </g>
          <g id="svg_92">
           <path id="svg_93" fill="#0060E6" d="m48.351,252.772l0,3.02c0,0.421 -0.341,0.762 -0.762,0.762c-0.421,0 -0.762,-0.341 -0.762,-0.762l0,-3.02c0,-0.421 0.341,-0.762 0.762,-0.762c0.421,0 0.762,0.341 0.762,0.762z"/>
          </g>
         </g>
        </g>
       </g>
      </g>
     </g>
    </g>
   </g>
   <g id="svg_94">
    <g id="svg_95">
     <g id="svg_96">
      <g id="svg_97">
       <g id="svg_98">
        <path id="svg_99" fill="#00A0FF" d="m67.888,124.827c-0.204,-1.033 -0.611,-2.031 -1.216,-2.922c-0.401,-0.595 -0.889,-1.142 -1.461,-1.621c-3.375,-2.827 -8.405,-2.378 -11.224,1.002c-2.173,2.608 -2.396,6.195 -0.831,8.99l-8.967,10.756c-0.76,0.911 -0.638,2.269 0.275,3.03l1.03,0.859c0.549,0.459 1.156,0.841 1.803,1.14c0.645,0.298 1.329,0.513 2.036,0.636c0.479,0.084 0.912,-0.108 1.184,-0.436c0.271,-0.326 0.385,-0.786 0.217,-1.245l-0.757,-2.055l2.158,0.374c0.479,0.086 0.912,-0.108 1.184,-0.434c0.271,-0.326 0.383,-0.787 0.217,-1.245l-0.757,-2.055l2.158,0.374c0.479,0.084 0.911,-0.109 1.185,-0.436c0.271,-0.326 0.385,-0.786 0.217,-1.245l-0.758,-2.053l1.939,-2.327c1.272,0.436 2.622,0.536 3.923,0.314c1.876,-0.32 3.649,-1.313 4.924,-2.94c0.129,-0.164 0.25,-0.331 0.362,-0.504c0.142,-0.209 0.269,-0.424 0.385,-0.644c0.882,-1.65 1.128,-3.536 0.774,-5.313zm-8.502,-1.868c0.977,-1.174 2.721,-1.333 3.893,-0.355c0.166,0.138 0.312,0.29 0.435,0.456c0.76,1.001 0.757,2.43 -0.082,3.437c-0.089,0.105 -0.183,0.204 -0.285,0.293c-0.248,0.222 -0.529,0.393 -0.829,0.509c-0.043,0.017 -0.088,0.034 -0.134,0.048c-0.204,0.069 -0.414,0.112 -0.626,0.131c-0.064,0.007 -0.129,0.01 -0.192,0.011c-0.064,0.002 -0.129,0.002 -0.194,-0.003c-0.056,-0.001 -0.113,-0.006 -0.171,-0.014c-0.059,-0.006 -0.118,-0.014 -0.177,-0.025c-0.004,0 -0.01,-0.002 -0.016,-0.002c-0.051,-0.009 -0.101,-0.02 -0.149,-0.034c-0.043,-0.008 -0.084,-0.019 -0.125,-0.032c-0.038,-0.01 -0.077,-0.022 -0.113,-0.036c-0.056,-0.017 -0.112,-0.037 -0.167,-0.063c-0.076,-0.03 -0.151,-0.064 -0.223,-0.103c-0.173,-0.088 -0.338,-0.199 -0.493,-0.328c-1.064,-0.888 -1.291,-2.411 -0.59,-3.559c0.07,-0.115 0.149,-0.226 0.238,-0.331z"/>
        <path id="svg_100" fill="#007EFF" d="m54.65,134.48l0,0c0.153,0.128 0.174,0.358 0.046,0.511l-7.045,8.45c-0.128,0.153 -0.358,0.174 -0.511,0.046l0,0c-0.153,-0.128 -0.174,-0.358 -0.046,-0.511l7.045,-8.45c0.128,-0.153 0.358,-0.174 0.511,-0.046z"/>
        <path id="svg_101" fill="#007EFF" d="m53.071,133.164l0,0c0.153,0.128 0.174,0.358 0.046,0.511l-7.045,8.45c-0.128,0.153 -0.358,0.174 -0.511,0.046l0,0c-0.153,-0.128 -0.174,-0.358 -0.046,-0.511l7.046,-8.45c0.127,-0.153 0.357,-0.174 0.51,-0.046z"/>
       </g>
       <path id="svg_102" fill="#007EFF" d="m63.347,126.79c-0.07,0.115 -0.149,0.227 -0.236,0.333c-0.717,0.86 -1.846,1.174 -2.858,0.894c-0.369,-0.101 -0.722,-0.28 -1.035,-0.542c-1.173,-0.979 -1.33,-2.72 -0.353,-3.894c0.089,-0.105 0.183,-0.202 0.284,-0.291c-0.701,1.148 -0.475,2.671 0.59,3.559c0.155,0.129 0.321,0.24 0.493,0.328c0.072,0.039 0.148,0.073 0.223,0.103c0.055,0.025 0.111,0.045 0.167,0.063c0.036,0.013 0.075,0.026 0.113,0.036c0.041,0.013 0.082,0.024 0.125,0.032c0.049,0.014 0.099,0.025 0.149,0.034c0.006,0 0.012,0.003 0.016,0.002c0.059,0.01 0.118,0.019 0.177,0.025c0.058,0.008 0.114,0.013 0.171,0.014c0.063,0.004 0.129,0.004 0.194,0.003c0.063,0 0.128,-0.004 0.192,-0.011c0.212,-0.019 0.422,-0.062 0.626,-0.131c0.046,-0.014 0.091,-0.031 0.134,-0.048c0.298,-0.116 0.579,-0.286 0.828,-0.509z"/>
       <path id="svg_103" fill="#007EFF" d="m65.407,127.844c-0.014,-0.134 -0.017,-0.27 -0.011,-0.409c0.073,-1.386 1.153,-2.481 2.493,-2.608c-0.204,-1.033 -0.611,-2.031 -1.216,-2.922c-1.072,0.183 -2.075,0.582 -2.958,1.155c0.76,1.001 0.757,2.43 -0.082,3.437c-0.089,0.105 -0.183,0.204 -0.285,0.293c-0.248,0.222 -0.529,0.393 -0.829,0.509c-0.043,0.017 -0.088,0.034 -0.134,0.048c-0.204,0.069 -0.414,0.112 -0.626,0.131c-0.064,0.007 -0.129,0.01 -0.192,0.011c-0.066,0.001 -0.131,0.001 -0.194,-0.003c-0.056,-0.001 -0.113,-0.006 -0.171,-0.014c-0.059,-0.006 -0.118,-0.014 -0.177,-0.025c-0.004,0 -0.01,-0.002 -0.016,-0.002c-0.051,-0.009 -0.101,-0.02 -0.149,-0.034c-0.043,-0.008 -0.084,-0.019 -0.125,-0.032c-0.038,-0.01 -0.077,-0.022 -0.113,-0.036c-0.056,-0.017 -0.112,-0.037 -0.167,-0.063c-0.079,0.24 -0.146,0.487 -0.202,0.736c-0.093,0.427 -0.154,0.866 -0.178,1.316c-0.094,1.807 0.423,3.505 1.369,4.894c1.876,-0.32 3.649,-1.313 4.924,-2.94c0.129,-0.164 0.25,-0.331 0.362,-0.504c0.142,-0.209 0.269,-0.424 0.385,-0.644c-0.939,-0.381 -1.612,-1.26 -1.708,-2.294z"/>
      </g>
      <g id="svg_104">
       <g id="svg_105">
        <path id="svg_106" fill="#00A0FF" d="m77.679,130.352c0.093,-4.261 -3.266,-7.881 -7.523,-8.114c-4.397,-0.24 -8.152,3.136 -8.381,7.531c-0.177,3.388 1.795,6.395 4.723,7.692l-0.73,13.985c-0.062,1.186 0.85,2.2 2.036,2.262l1.34,0.07c0.715,0.037 1.43,-0.02 2.126,-0.169c0.696,-0.149 1.373,-0.386 2.011,-0.712c0.435,-0.221 0.665,-0.634 0.687,-1.059c0.022,-0.424 -0.164,-0.86 -0.573,-1.127l-1.837,-1.191l1.951,-0.993c0.435,-0.219 0.665,-0.633 0.687,-1.057c0.022,-0.424 -0.164,-0.86 -0.573,-1.127l-1.837,-1.191l1.951,-0.995c0.435,-0.221 0.665,-0.633 0.687,-1.059c0.022,-0.424 -0.164,-0.86 -0.573,-1.127l-1.837,-1.189l0.158,-3.025c3.121,-1.008 5.429,-3.904 5.507,-7.405zm-5.115,-1.789c-0.265,1.319 -1.466,2.283 -2.852,2.21c-1.385,-0.072 -2.48,-1.155 -2.606,-2.495c-0.013,-0.135 -0.017,-0.271 -0.01,-0.409c0.08,-1.525 1.379,-2.697 2.904,-2.618c1.525,0.08 2.696,1.381 2.616,2.906c-0.007,0.138 -0.025,0.273 -0.052,0.406z"/>
        <path id="svg_107" fill="#007EFF" d="m70.213,139.931l0,0c0.199,0.01 0.354,0.182 0.343,0.381l-0.573,10.987c-0.01,0.199 -0.182,0.354 -0.381,0.343l0,0c-0.199,-0.01 -0.354,-0.182 -0.343,-0.381l0.573,-10.987c0.011,-0.199 0.182,-0.353 0.381,-0.343z"/>
        <path id="svg_108" fill="#007EFF" d="m68.161,139.824l0,0c0.199,0.01 0.354,0.182 0.343,0.381l-0.573,10.987c-0.01,0.199 -0.182,0.354 -0.381,0.343l0,0c-0.199,-0.01 -0.354,-0.182 -0.343,-0.381l0.573,-10.987c0.01,-0.199 0.182,-0.353 0.381,-0.343z"/>
       </g>
       <path id="svg_109" fill="#007EFF" d="m72.573,128.971c-0.079,1.525 -1.381,2.695 -2.904,2.616c-1.525,-0.08 -2.696,-1.379 -2.616,-2.904c0.007,-0.138 0.025,-0.273 0.052,-0.404c0.126,1.339 1.221,2.423 2.606,2.495c1.386,0.072 2.587,-0.891 2.852,-2.21c0.014,0.133 0.018,0.269 0.01,0.407z"/>
      </g>
      <g id="svg_110">
       <g id="svg_111">
        <path id="svg_112" fill="#3B3E7D" d="m71.803,111.817c-4.634,-1.973 -10.009,0.19 -11.982,4.824c-0.255,0.6 -0.442,1.213 -0.561,1.83c1.149,-0.123 2.325,0.004 3.437,0.389c0.071,-0.292 0.168,-0.584 0.29,-0.871c1.23,-2.888 4.581,-4.236 7.469,-3.006c2.889,1.23 4.238,4.58 3.009,7.468c-0.085,0.198 -0.18,0.39 -0.284,0.574c1.056,0.515 1.982,1.257 2.714,2.159c0.28,-0.432 0.527,-0.896 0.736,-1.385c1.972,-4.634 -0.194,-10.009 -4.828,-11.982zm-1.152,13.55c-0.801,0.379 -1.689,0.57 -2.591,0.546c-0.011,-0.001 -0.021,-0.001 -0.033,-0.002c-0.681,-0.022 -1.369,-0.169 -2.034,-0.452c-0.641,-0.273 -1.208,-0.652 -1.686,-1.106c-0.025,-0.024 -0.049,-0.047 -0.072,-0.07c-0.556,-0.548 -0.989,-1.201 -1.279,-1.91c-1.11,-0.685 -2.573,-0.499 -3.476,0.476c0.506,1.678 1.487,3.202 2.858,4.359c0.044,0.036 0.087,0.073 0.133,0.108c0.08,0.066 0.161,0.13 0.245,0.193c0.584,0.441 1.228,0.818 1.93,1.117c0.798,0.34 1.619,0.557 2.441,0.66c0.11,0.013 0.221,0.025 0.332,0.035c0.023,0.002 0.047,0.005 0.071,0.005c1.792,0.145 3.573,-0.25 5.12,-1.095c0.004,-0.024 0.004,-0.047 0.006,-0.07c0.067,-1.301 -0.772,-2.438 -1.965,-2.794z"/>
       </g>
      </g>
     </g>
     <g id="svg_113">
      <g id="svg_114">
       <path id="svg_115" fill="#B4CAE3" d="m33.948,159.678l-2.097,0c-0.545,0 -0.987,-0.442 -0.987,-0.987l0,-2.097c0,-0.545 0.442,-0.987 0.987,-0.987s0.987,0.442 0.987,0.987l0,1.11l1.11,0c0.545,0 0.987,0.442 0.987,0.987c0,0.545 -0.442,0.987 -0.987,0.987z"/>
      </g>
      <g id="svg_116">
       <path id="svg_117" fill="#B4CAE3" d="m90.668,159.678l-4.174,0c-0.545,0 -0.987,-0.442 -0.987,-0.987c0,-0.545 0.442,-0.987 0.987,-0.987l4.174,0c0.545,0 0.987,0.442 0.987,0.987c0,0.545 -0.442,0.987 -0.987,0.987zm-8.103,0l-4.174,0c-0.545,0 -0.987,-0.442 -0.987,-0.987c0,-0.545 0.442,-0.987 0.987,-0.987l4.174,0c0.545,0 0.987,0.442 0.987,0.987c0,0.545 -0.442,0.987 -0.987,0.987zm-8.103,0l-4.174,0c-0.545,0 -0.987,-0.442 -0.987,-0.987c0,-0.545 0.442,-0.987 0.987,-0.987l4.174,0c0.545,0 0.987,0.442 0.987,0.987c0,0.545 -0.442,0.987 -0.987,0.987zm-8.103,0l-4.174,0c-0.545,0 -0.987,-0.442 -0.987,-0.987c0,-0.545 0.442,-0.987 0.987,-0.987l4.174,0c0.545,0 0.987,0.442 0.987,0.987c0,0.545 -0.442,0.987 -0.987,0.987zm-8.103,0l-4.174,0c-0.545,0 -0.987,-0.442 -0.987,-0.987c0,-0.545 0.442,-0.987 0.987,-0.987l4.174,0c0.545,0 0.987,0.442 0.987,0.987c0,0.545 -0.442,0.987 -0.987,0.987zm-8.102,0l-4.174,0c-0.545,0 -0.987,-0.442 -0.987,-0.987c0,-0.545 0.442,-0.987 0.987,-0.987l4.174,0c0.545,0 0.987,0.442 0.987,0.987c-0.001,0.545 -0.443,0.987 -0.987,0.987zm-8.103,0l-4.174,0c-0.545,0 -0.987,-0.442 -0.987,-0.987c0,-0.545 0.442,-0.987 0.987,-0.987l4.174,0c0.545,0 0.987,0.442 0.987,0.987c-0.001,0.545 -0.442,0.987 -0.987,0.987z"/>
      </g>
      <g id="svg_118">
       <path id="svg_119" fill="#B4CAE3" d="m96.693,159.678l-2.097,0c-0.545,0 -0.987,-0.442 -0.987,-0.987c0,-0.545 0.442,-0.987 0.987,-0.987l1.11,0l0,-1.11c0,-0.545 0.442,-0.987 0.987,-0.987c0.545,0 0.987,0.442 0.987,0.987l0,2.097c0,0.545 -0.442,0.987 -0.987,0.987z"/>
      </g>
      <g id="svg_120">
       <path id="svg_121" fill="#B4CAE3" d="m96.693,153.803c-0.545,0 -0.987,-0.442 -0.987,-0.987l0,-4.014c0,-0.545 0.442,-0.987 0.987,-0.987c0.545,0 0.987,0.442 0.987,0.987l0,4.014c0,0.546 -0.442,0.987 -0.987,0.987zm0,-7.791c-0.545,0 -0.987,-0.442 -0.987,-0.987l0,-4.014c0,-0.545 0.442,-0.987 0.987,-0.987c0.545,0 0.987,0.442 0.987,0.987l0,4.014c0,0.545 -0.442,0.987 -0.987,0.987zm0,-7.792c-0.545,0 -0.987,-0.442 -0.987,-0.987l0,-4.014c0,-0.545 0.442,-0.987 0.987,-0.987c0.545,0 0.987,0.442 0.987,0.987l0,4.014c0,0.546 -0.442,0.987 -0.987,0.987zm0,-7.791c-0.545,0 -0.987,-0.442 -0.987,-0.987l0,-4.014c0,-0.545 0.442,-0.987 0.987,-0.987c0.545,0 0.987,0.442 0.987,0.987l0,4.014c0,0.545 -0.442,0.987 -0.987,0.987zm0,-7.792c-0.545,0 -0.987,-0.442 -0.987,-0.987l0,-4.014c0,-0.545 0.442,-0.987 0.987,-0.987c0.545,0 0.987,0.442 0.987,0.987l0,4.014c0,0.545 -0.442,0.987 -0.987,0.987zm0,-7.791c-0.545,0 -0.987,-0.442 -0.987,-0.987l0,-4.014c0,-0.545 0.442,-0.987 0.987,-0.987c0.545,0 0.987,0.442 0.987,0.987l0,4.014c0,0.545 -0.442,0.987 -0.987,0.987z"/>
      </g>
      <g id="svg_122">
       <path id="svg_123" fill="#B4CAE3" d="m96.693,107.054c-0.545,0 -0.987,-0.442 -0.987,-0.987l0,-1.11l-1.11,0c-0.545,0 -0.987,-0.442 -0.987,-0.987c0,-0.545 0.442,-0.987 0.987,-0.987l2.097,0c0.545,0 0.987,0.442 0.987,0.987l0,2.097c0,0.545 -0.442,0.987 -0.987,0.987z"/>
      </g>
      <g id="svg_124">
       <path id="svg_125" fill="#B4CAE3" d="m90.668,104.957l-4.174,0c-0.545,0 -0.987,-0.442 -0.987,-0.987c0,-0.545 0.442,-0.987 0.987,-0.987l4.174,0c0.545,0 0.987,0.442 0.987,0.987c0,0.546 -0.442,0.987 -0.987,0.987zm-8.103,0l-4.174,0c-0.545,0 -0.987,-0.442 -0.987,-0.987c0,-0.545 0.442,-0.987 0.987,-0.987l4.174,0c0.545,0 0.987,0.442 0.987,0.987c0,0.546 -0.442,0.987 -0.987,0.987zm-8.103,0l-4.174,0c-0.545,0 -0.987,-0.442 -0.987,-0.987c0,-0.545 0.442,-0.987 0.987,-0.987l4.174,0c0.545,0 0.987,0.442 0.987,0.987c0,0.546 -0.442,0.987 -0.987,0.987zm-8.103,0l-4.174,0c-0.545,0 -0.987,-0.442 -0.987,-0.987c0,-0.545 0.442,-0.987 0.987,-0.987l4.174,0c0.545,0 0.987,0.442 0.987,0.987c0,0.546 -0.442,0.987 -0.987,0.987zm-8.103,0l-4.174,0c-0.545,0 -0.987,-0.442 -0.987,-0.987c0,-0.545 0.442,-0.987 0.987,-0.987l4.174,0c0.545,0 0.987,0.442 0.987,0.987c0,0.546 -0.442,0.987 -0.987,0.987zm-8.102,0l-4.174,0c-0.545,0 -0.987,-0.442 -0.987,-0.987c0,-0.545 0.442,-0.987 0.987,-0.987l4.174,0c0.545,0 0.987,0.442 0.987,0.987c-0.001,0.546 -0.443,0.987 -0.987,0.987zm-8.103,0l-4.174,0c-0.545,0 -0.987,-0.442 -0.987,-0.987c0,-0.545 0.442,-0.987 0.987,-0.987l4.174,0c0.545,0 0.987,0.442 0.987,0.987c-0.001,0.546 -0.442,0.987 -0.987,0.987z"/>
      </g>
      <g id="svg_126">
       <path id="svg_127" fill="#B4CAE3" d="m31.851,107.054c-0.545,0 -0.987,-0.442 -0.987,-0.987l0,-2.097c0,-0.545 0.442,-0.987 0.987,-0.987l2.097,0c0.545,0 0.987,0.442 0.987,0.987c0,0.545 -0.442,0.987 -0.987,0.987l-1.11,0l0,1.11c0,0.545 -0.442,0.987 -0.987,0.987z"/>
      </g>
      <g id="svg_128">
       <path id="svg_129" fill="#B4CAE3" d="m31.851,153.803c-0.545,0 -0.987,-0.442 -0.987,-0.987l0,-4.014c0,-0.545 0.442,-0.987 0.987,-0.987s0.987,0.442 0.987,0.987l0,4.014c0,0.546 -0.442,0.987 -0.987,0.987zm0,-7.791c-0.545,0 -0.987,-0.442 -0.987,-0.987l0,-4.014c0,-0.545 0.442,-0.987 0.987,-0.987s0.987,0.442 0.987,0.987l0,4.014c0,0.545 -0.442,0.987 -0.987,0.987zm0,-7.792c-0.545,0 -0.987,-0.442 -0.987,-0.987l0,-4.014c0,-0.545 0.442,-0.987 0.987,-0.987s0.987,0.442 0.987,0.987l0,4.014c0,0.546 -0.442,0.987 -0.987,0.987zm0,-7.791c-0.545,0 -0.987,-0.442 -0.987,-0.987l0,-4.014c0,-0.545 0.442,-0.987 0.987,-0.987s0.987,0.442 0.987,0.987l0,4.014c0,0.545 -0.442,0.987 -0.987,0.987zm0,-7.792c-0.545,0 -0.987,-0.442 -0.987,-0.987l0,-4.014c0,-0.545 0.442,-0.987 0.987,-0.987s0.987,0.442 0.987,0.987l0,4.014c0,0.545 -0.442,0.987 -0.987,0.987zm0,-7.791c-0.545,0 -0.987,-0.442 -0.987,-0.987l0,-4.014c0,-0.545 0.442,-0.987 0.987,-0.987s0.987,0.442 0.987,0.987l0,4.014c0,0.545 -0.442,0.987 -0.987,0.987z"/>
      </g>
     </g>
     <g id="svg_130">
      <path id="svg_131" fill="#B4CAE3" d="m124.651,173.197c-0.545,0 -0.987,-0.442 -0.987,-0.987l0,-4.193c0,-0.545 0.442,-0.987 0.987,-0.987c0.545,0 0.987,0.442 0.987,0.987l0,4.193c0,0.545 -0.442,0.987 -0.987,0.987zm0,-8.14c-0.545,0 -0.987,-0.442 -0.987,-0.987l0,-4.193c0,-0.545 0.442,-0.987 0.987,-0.987c0.545,0 0.987,0.442 0.987,0.987l0,4.193c0,0.546 -0.442,0.987 -0.987,0.987zm0,-8.139c-0.545,0 -0.987,-0.442 -0.987,-0.987l0,-4.193c0,-0.545 0.442,-0.987 0.987,-0.987c0.545,0 0.987,0.442 0.987,0.987l0,4.193c0,0.545 -0.442,0.987 -0.987,0.987zm0,-8.14c-0.545,0 -0.987,-0.442 -0.987,-0.987l0,-4.193c0,-0.545 0.442,-0.987 0.987,-0.987c0.545,0 0.987,0.442 0.987,0.987l0,4.193c0,0.545 -0.442,0.987 -0.987,0.987zm0,-8.14c-0.545,0 -0.987,-0.442 -0.987,-0.987l0,-4.193c0,-0.545 0.442,-0.987 0.987,-0.987c0.545,0 0.987,0.442 0.987,0.987l0,4.193c0,0.545 -0.442,0.987 -0.987,0.987zm-3.385,-4.754l-4.193,0c-0.545,0 -0.987,-0.442 -0.987,-0.987c0,-0.545 0.442,-0.987 0.987,-0.987l4.193,0c0.545,0 0.987,0.442 0.987,0.987c0,0.545 -0.442,0.987 -0.987,0.987zm-8.14,0l-4.193,0c-0.545,0 -0.987,-0.442 -0.987,-0.987c0,-0.545 0.442,-0.987 0.987,-0.987l4.193,0c0.545,0 0.987,0.442 0.987,0.987c0,0.545 -0.442,0.987 -0.987,0.987zm-8.14,0l-4.193,0c-0.545,0 -0.987,-0.442 -0.987,-0.987c0,-0.545 0.442,-0.987 0.987,-0.987l4.193,0c0.545,0 0.987,0.442 0.987,0.987c0,0.545 -0.442,0.987 -0.987,0.987zm-8.139,0l-0.09,0c-0.545,0 -0.987,-0.442 -0.987,-0.987c0,-0.545 0.442,-0.987 0.987,-0.987l0.09,0c0.545,0 0.987,0.442 0.987,0.987c-0.001,0.545 -0.442,0.987 -0.987,0.987z"/>
     </g>
    </g>
    <g id="svg_132">
     <g id="svg_133">
      <g id="svg_134">
       <g id="svg_135">
        <g id="svg_136">
         <path id="svg_137" fill="#007EFF" d="m342.277,130.184l-0.167,5.852l5.483,0.157c0.236,1.395 0.707,2.754 1.394,4.031l-3.885,3.668l4.019,4.257l3.719,-3.511c1.457,1.058 3.085,1.788 4.78,2.176l-0.158,5.484l5.852,0.168l0.162,-5.652c1.152,-0.259 2.272,-0.673 3.336,-1.246l3.668,3.886l4.257,-4.019l-3.511,-3.718c1.058,-1.457 1.788,-3.085 2.176,-4.78l4.794,0.139l0.169,-5.853l-4.962,-0.142c-0.33,-1.47 -0.908,-2.893 -1.749,-4.203l3.72,-3.511l-4.019,-4.257l-3.886,3.668c-1.438,-0.885 -3.009,-1.467 -4.63,-1.749l0.159,-5.517l-5.852,-0.168l-0.172,5.981c-1.223,0.345 -2.404,0.87 -3.507,1.579l-3.511,-3.72l-4.257,4.019l3.668,3.885c-0.633,1.029 -1.111,2.124 -1.436,3.26l-5.654,-0.164zm14.611,-0.102c2.152,-2.031 5.554,-1.934 7.586,0.218c2.031,2.152 1.934,5.555 -0.218,7.586c-2.152,2.031 -5.555,1.934 -7.586,-0.218c-2.032,-2.152 -1.934,-5.554 0.218,-7.586z"/>
        </g>
        <g id="svg_138">
         <path id="svg_139" fill="#0060E6" d="m361.48,142.442c4.734,-0.509 8.16,-4.759 7.651,-9.494c-0.509,-4.735 -4.759,-8.16 -9.494,-7.651c-4.734,0.509 -8.16,4.759 -7.651,9.494c0.51,4.734 4.76,8.16 9.494,7.651zm-4.592,-12.36c2.152,-2.031 5.554,-1.934 7.586,0.218c2.031,2.152 1.934,5.555 -0.218,7.586c-2.152,2.031 -5.555,1.934 -7.586,-0.218c-2.032,-2.152 -1.934,-5.554 0.218,-7.586z"/>
        </g>
       </g>
       <g id="svg_140">
        <g id="svg_141">
         <path id="svg_142" fill="#007EFF" d="m380.785,132.679l-0.097,3.398l3.184,0.091c0.137,0.81 0.41,1.599 0.809,2.341l-2.256,2.13l2.334,2.472l2.159,-2.039c0.846,0.614 1.792,1.038 2.776,1.264l-0.092,3.185l3.399,0.097l0.094,-3.282c0.669,-0.15 1.32,-0.391 1.937,-0.724l2.13,2.257l2.472,-2.334l-2.039,-2.159c0.614,-0.846 1.038,-1.792 1.263,-2.776l2.784,0.08l0.098,-3.398l-2.882,-0.083c-0.192,-0.853 -0.527,-1.68 -1.016,-2.441l2.16,-2.039l-2.334,-2.472l-2.257,2.13c-0.835,-0.514 -1.747,-0.852 -2.689,-1.016l0.093,-3.204l-3.398,-0.097l-0.1,3.473c-0.71,0.2 -1.396,0.505 -2.036,0.917l-2.039,-2.16l-2.472,2.334l2.13,2.256c-0.367,0.597 -0.645,1.233 -0.834,1.893l-3.281,-0.094zm8.485,-0.059c1.25,-1.18 3.225,-1.123 4.405,0.127c1.18,1.25 1.123,3.225 -0.127,4.405c-1.25,1.18 -3.226,1.123 -4.405,-0.127c-1.179,-1.249 -1.123,-3.225 0.127,-4.405z"/>
        </g>
        <g id="svg_143">
         <path id="svg_144" fill="#0060E6" d="m391.937,139.797c2.749,-0.296 4.738,-2.764 4.443,-5.513c-0.295,-2.749 -2.764,-4.738 -5.513,-4.443c-2.749,0.296 -4.738,2.764 -4.443,5.513c0.295,2.75 2.764,4.739 5.513,4.443zm-2.667,-7.177c1.25,-1.18 3.225,-1.123 4.405,0.127c1.18,1.25 1.123,3.225 -0.127,4.405c-1.25,1.18 -3.226,1.123 -4.405,-0.127c-1.179,-1.249 -1.123,-3.225 0.127,-4.405z"/>
        </g>
       </g>
      </g>
     </g>
     <g id="svg_145">
      <g id="svg_146">
       <path id="svg_147" fill="#B4CAE3" d="m417.115,159.678l-2.097,0c-0.545,0 -0.987,-0.442 -0.987,-0.987c0,-0.545 0.442,-0.987 0.987,-0.987l1.11,0l0,-1.11c0,-0.545 0.442,-0.987 0.987,-0.987c0.545,0 0.987,0.442 0.987,0.987l0,2.097c0,0.545 -0.442,0.987 -0.987,0.987z"/>
      </g>
      <g id="svg_148">
       <path id="svg_149" fill="#B4CAE3" d="m411.033,159.678l-4.235,0c-0.545,0 -0.987,-0.442 -0.987,-0.987c0,-0.545 0.442,-0.987 0.987,-0.987l4.235,0c0.545,0 0.987,0.442 0.987,0.987c0,0.545 -0.442,0.987 -0.987,0.987zm-8.22,0l-4.235,0c-0.545,0 -0.987,-0.442 -0.987,-0.987c0,-0.545 0.442,-0.987 0.987,-0.987l4.235,0c0.545,0 0.987,0.442 0.987,0.987c0,0.545 -0.442,0.987 -0.987,0.987zm-8.22,0l-4.235,0c-0.545,0 -0.987,-0.442 -0.987,-0.987c0,-0.545 0.442,-0.987 0.987,-0.987l4.235,0c0.545,0 0.987,0.442 0.987,0.987c0,0.545 -0.442,0.987 -0.987,0.987zm-8.22,0l-4.235,0c-0.545,0 -0.987,-0.442 -0.987,-0.987c0,-0.545 0.442,-0.987 0.987,-0.987l4.235,0c0.545,0 0.987,0.442 0.987,0.987c-0.001,0.545 -0.442,0.987 -0.987,0.987zm-8.22,0l-4.235,0c-0.545,0 -0.987,-0.442 -0.987,-0.987c0,-0.545 0.442,-0.987 0.987,-0.987l4.235,0c0.545,0 0.987,0.442 0.987,0.987c-0.001,0.545 -0.443,0.987 -0.987,0.987zm-8.221,0l-4.235,0c-0.545,0 -0.987,-0.442 -0.987,-0.987c0,-0.545 0.442,-0.987 0.987,-0.987l4.235,0c0.545,0 0.987,0.442 0.987,0.987c0,0.545 -0.442,0.987 -0.987,0.987zm-8.22,0l-4.235,0c-0.545,0 -0.987,-0.442 -0.987,-0.987c0,-0.545 0.442,-0.987 0.987,-0.987l4.235,0c0.545,0 0.987,0.442 0.987,0.987c0,0.545 -0.442,0.987 -0.987,0.987zm-8.22,0l-4.235,0c-0.545,0 -0.987,-0.442 -0.987,-0.987c0,-0.545 0.442,-0.987 0.987,-0.987l4.235,0c0.545,0 0.987,0.442 0.987,0.987c0,0.545 -0.442,0.987 -0.987,0.987zm-8.22,0l-4.235,0c-0.545,0 -0.987,-0.442 -0.987,-0.987c0,-0.545 0.442,-0.987 0.987,-0.987l4.235,0c0.545,0 0.987,0.442 0.987,0.987c-0.001,0.545 -0.442,0.987 -0.987,0.987zm-8.22,0l-4.235,0c-0.545,0 -0.987,-0.442 -0.987,-0.987c0,-0.545 0.442,-0.987 0.987,-0.987l4.235,0c0.545,0 0.987,0.442 0.987,0.987c-0.001,0.545 -0.443,0.987 -0.987,0.987z"/>
      </g>
      <g id="svg_150">
       <path id="svg_151" fill="#B4CAE3" d="m328.831,159.678l-2.097,0c-0.545,0 -0.987,-0.442 -0.987,-0.987l0,-2.097c0,-0.545 0.442,-0.987 0.987,-0.987s0.987,0.442 0.987,0.987l0,1.11l1.11,0c0.545,0 0.987,0.442 0.987,0.987c0,0.545 -0.442,0.987 -0.987,0.987z"/>
      </g>
      <g id="svg_152">
       <path id="svg_153" fill="#B4CAE3" d="m326.735,153.54c-0.545,0 -0.987,-0.442 -0.987,-0.987l0,-4.294c0,-0.545 0.442,-0.987 0.987,-0.987s0.987,0.442 0.987,0.987l0,4.294c-0.001,0.545 -0.442,0.987 -0.987,0.987zm0,-8.334c-0.545,0 -0.987,-0.442 -0.987,-0.987l0,-4.294c0,-0.545 0.442,-0.987 0.987,-0.987s0.987,0.442 0.987,0.987l0,4.294c-0.001,0.545 -0.442,0.987 -0.987,0.987zm0,-8.335c-0.545,0 -0.987,-0.442 -0.987,-0.987l0,-4.294c0,-0.545 0.442,-0.987 0.987,-0.987s0.987,0.442 0.987,0.987l0,4.294c-0.001,0.546 -0.442,0.987 -0.987,0.987zm0,-8.334c-0.545,0 -0.987,-0.442 -0.987,-0.987l0,-4.294c0,-0.545 0.442,-0.987 0.987,-0.987s0.987,0.442 0.987,0.987l0,4.294c-0.001,0.545 -0.442,0.987 -0.987,0.987zm0,-8.335c-0.545,0 -0.987,-0.442 -0.987,-0.987l0,-4.293c0,-0.545 0.442,-0.987 0.987,-0.987s0.987,0.442 0.987,0.987l0,4.293c-0.001,0.546 -0.442,0.987 -0.987,0.987z"/>
      </g>
      <g id="svg_154">
       <path id="svg_155" fill="#B4CAE3" d="m326.735,111.868c-0.545,0 -0.987,-0.442 -0.987,-0.987l0,-2.097c0,-0.545 0.442,-0.987 0.987,-0.987l2.097,0c0.545,0 0.987,0.442 0.987,0.987s-0.442,0.987 -0.987,0.987l-1.11,0l0,1.11c-0.001,0.545 -0.442,0.987 -0.987,0.987z"/>
      </g>
      <g id="svg_156">
       <path id="svg_157" fill="#B4CAE3" d="m411.034,109.771l-4.235,0c-0.545,0 -0.987,-0.442 -0.987,-0.987s0.442,-0.987 0.987,-0.987l4.235,0c0.545,0 0.987,0.442 0.987,0.987s-0.443,0.987 -0.987,0.987zm-8.221,0l-4.235,0c-0.545,0 -0.987,-0.442 -0.987,-0.987s0.442,-0.987 0.987,-0.987l4.235,0c0.545,0 0.987,0.442 0.987,0.987s-0.442,0.987 -0.987,0.987zm-8.22,0l-4.235,0c-0.545,0 -0.987,-0.442 -0.987,-0.987s0.442,-0.987 0.987,-0.987l4.235,0c0.545,0 0.987,0.442 0.987,0.987s-0.442,0.987 -0.987,0.987zm-8.22,0l-4.235,0c-0.545,0 -0.987,-0.442 -0.987,-0.987s0.442,-0.987 0.987,-0.987l4.235,0c0.545,0 0.987,0.442 0.987,0.987s-0.442,0.987 -0.987,0.987zm-8.22,0l-4.235,0c-0.545,0 -0.987,-0.442 -0.987,-0.987s0.442,-0.987 0.987,-0.987l4.235,0c0.545,0 0.987,0.442 0.987,0.987s-0.443,0.987 -0.987,0.987zm-8.221,0l-4.235,0c-0.545,0 -0.987,-0.442 -0.987,-0.987s0.442,-0.987 0.987,-0.987l4.235,0c0.545,0 0.987,0.442 0.987,0.987s-0.442,0.987 -0.987,0.987zm-8.22,0l-4.235,0c-0.545,0 -0.987,-0.442 -0.987,-0.987s0.442,-0.987 0.987,-0.987l4.235,0c0.545,0 0.987,0.442 0.987,0.987s-0.442,0.987 -0.987,0.987zm-8.22,0l-4.235,0c-0.545,0 -0.987,-0.442 -0.987,-0.987s0.442,-0.987 0.987,-0.987l4.235,0c0.545,0 0.987,0.442 0.987,0.987s-0.442,0.987 -0.987,0.987zm-8.22,0l-4.235,0c-0.545,0 -0.987,-0.442 -0.987,-0.987s0.442,-0.987 0.987,-0.987l4.235,0c0.545,0 0.987,0.442 0.987,0.987s-0.442,0.987 -0.987,0.987zm-8.22,0l-4.235,0c-0.545,0 -0.987,-0.442 -0.987,-0.987s0.442,-0.987 0.987,-0.987l4.235,0c0.545,0 0.987,0.442 0.987,0.987s-0.443,0.987 -0.987,0.987z"/>
      </g>
      <g id="svg_158">
       <path id="svg_159" fill="#B4CAE3" d="m417.115,111.868c-0.545,0 -0.987,-0.442 -0.987,-0.987l0,-1.11l-1.11,0c-0.545,0 -0.987,-0.442 -0.987,-0.987s0.442,-0.987 0.987,-0.987l2.097,0c0.545,0 0.987,0.442 0.987,0.987l0,2.097c0,0.545 -0.442,0.987 -0.987,0.987z"/>
      </g>
      <g id="svg_160">
       <path id="svg_161" fill="#B4CAE3" d="m417.115,153.54c-0.545,0 -0.987,-0.442 -0.987,-0.987l0,-4.294c0,-0.545 0.442,-0.987 0.987,-0.987c0.545,0 0.987,0.442 0.987,0.987l0,4.294c0,0.545 -0.442,0.987 -0.987,0.987zm0,-8.334c-0.545,0 -0.987,-0.442 -0.987,-0.987l0,-4.294c0,-0.545 0.442,-0.987 0.987,-0.987c0.545,0 0.987,0.442 0.987,0.987l0,4.294c0,0.545 -0.442,0.987 -0.987,0.987zm0,-8.335c-0.545,0 -0.987,-0.442 -0.987,-0.987l0,-4.294c0,-0.545 0.442,-0.987 0.987,-0.987c0.545,0 0.987,0.442 0.987,0.987l0,4.294c0,0.546 -0.442,0.987 -0.987,0.987zm0,-8.334c-0.545,0 -0.987,-0.442 -0.987,-0.987l0,-4.294c0,-0.545 0.442,-0.987 0.987,-0.987c0.545,0 0.987,0.442 0.987,0.987l0,4.294c0,0.545 -0.442,0.987 -0.987,0.987zm0,-8.335c-0.545,0 -0.987,-0.442 -0.987,-0.987l0,-4.293c0,-0.545 0.442,-0.987 0.987,-0.987c0.545,0 0.987,0.442 0.987,0.987l0,4.293c0,0.546 -0.442,0.987 -0.987,0.987z"/>
      </g>
     </g>
     <g id="svg_162">
      <path id="svg_163" fill="#B4CAE3" d="m298.84,173.197c-0.545,0 -0.987,-0.442 -0.987,-0.987l0,-4.193c0,-0.545 0.442,-0.987 0.987,-0.987c0.545,0 0.987,0.442 0.987,0.987l0,4.193c0,0.545 -0.442,0.987 -0.987,0.987zm0,-8.14c-0.545,0 -0.987,-0.442 -0.987,-0.987l0,-4.193c0,-0.545 0.442,-0.987 0.987,-0.987c0.545,0 0.987,0.442 0.987,0.987l0,4.193c0,0.546 -0.442,0.987 -0.987,0.987zm0,-8.139c-0.545,0 -0.987,-0.442 -0.987,-0.987l0,-4.193c0,-0.545 0.442,-0.987 0.987,-0.987c0.545,0 0.987,0.442 0.987,0.987l0,4.193c0,0.545 -0.442,0.987 -0.987,0.987zm0,-8.14c-0.545,0 -0.987,-0.442 -0.987,-0.987l0,-4.193c0,-0.545 0.442,-0.987 0.987,-0.987c0.545,0 0.987,0.442 0.987,0.987l0,4.193c0,0.545 -0.442,0.987 -0.987,0.987zm0,-8.14c-0.545,0 -0.987,-0.442 -0.987,-0.987l0,-4.193c0,-0.545 0.442,-0.987 0.987,-0.987c0.545,0 0.987,0.442 0.987,0.987l0,4.193c0,0.545 -0.442,0.987 -0.987,0.987zm27.895,-5.409l-0.745,0c-0.545,0 -0.987,-0.442 -0.987,-0.987c0,-0.545 0.442,-0.987 0.987,-0.987l0.745,0c0.545,0 0.987,0.442 0.987,0.987c-0.001,0.545 -0.442,0.987 -0.987,0.987zm-4.692,0l-4.193,0c-0.545,0 -0.987,-0.442 -0.987,-0.987c0,-0.545 0.442,-0.987 0.987,-0.987l4.193,0c0.545,0 0.987,0.442 0.987,0.987c0,0.545 -0.442,0.987 -0.987,0.987zm-8.139,0l-4.193,0c-0.545,0 -0.987,-0.442 -0.987,-0.987c0,-0.545 0.442,-0.987 0.987,-0.987l4.193,0c0.545,0 0.987,0.442 0.987,0.987c-0.001,0.545 -0.443,0.987 -0.987,0.987zm-8.14,0l-4.193,0c-0.545,0 -0.987,-0.442 -0.987,-0.987c0,-0.545 0.442,-0.987 0.987,-0.987l4.193,0c0.545,0 0.987,0.442 0.987,0.987c-0.001,0.545 -0.442,0.987 -0.987,0.987z"/>
     </g>
    </g>
   </g>
   <path id="svg_164" fill="#0060E6" d="m50.55,249.287l-0.01,0.015l0.017,0l-0.007,-0.015z"/>
   <polygon id="svg_165" fill="#0060E6" points="50.54,249.302 50.476,249.391 50.496,249.302  "/>
   <g id="svg_166">
    <g id="svg_167">
     <g id="svg_168">
      <g id="svg_169">
       <g id="svg_170">
        <g id="svg_171">
         <path id="svg_172" fill="#3B3E7D" d="m418.593,178.211l0,188.051c0,7.754 -6.283,14.037 -14.037,14.037l-320.482,0c-7.754,0 -14.037,-6.283 -14.037,-14.037l0,-188.051c0,-7.754 6.283,-14.037 14.037,-14.037l320.483,0c7.753,0 14.036,6.283 14.036,14.037z"/>
        </g>
        <path id="svg_173" fill="#18285D" d="m418.593,276.038l0,90.224c0,7.754 -6.283,14.037 -14.037,14.037l-320.482,0c-7.754,0 -14.037,-6.283 -14.037,-14.037l0,-90.224l348.556,0z"/>
       </g>
       <path id="svg_174" fill="#FFFFFF" d="m403.112,187.771l0,168.931c0,4.971 -4.028,9.002 -8.999,9.002l-299.592,0c-2.1,0 -4.031,-0.72 -5.564,-1.926c-0.405,-0.32 -0.785,-0.676 -1.13,-1.06c-1.437,-1.59 -2.308,-3.703 -2.308,-6.016l0,-168.931c0,-4.971 4.033,-9.002 9.002,-9.002l299.591,0c1.663,0 3.217,0.45 4.553,1.237c1.255,0.738 2.318,1.772 3.087,3.007c0.863,1.38 1.36,3.012 1.36,4.758z"/>
      </g>
      <g id="svg_175">
       <path id="svg_176" fill="#021147" d="m451.153,372.785l0,1.202c0,5.982 -1.918,11.514 -5.176,16.013c-4.967,6.871 -13.051,11.341 -22.179,11.341l-358.967,0c-9.128,0 -17.212,-4.47 -22.179,-11.341c-3.257,-4.499 -5.176,-10.031 -5.176,-16.013l0,-1.202l413.677,0z"/>
      </g>
      <path id="svg_177" fill="#FFFFFF" d="m197.951,372.785l0,0.275c0,2.166 1.45,3.922 3.24,3.922l84.45,0c1.789,0 3.239,-1.756 3.239,-3.922l0,-0.275l-90.929,0z"/>
      <g id="svg_178">
       <path id="svg_179" fill="#D9E4F5" d="m403.11,187.771l0,9.967l-317.59,0l0,-9.967c0,-1.918 0.597,-3.693 1.623,-5.15c1.623,-2.329 4.323,-3.851 7.379,-3.851l299.59,0c3.056,0 5.755,1.523 7.375,3.851c1.026,1.457 1.623,3.232 1.623,5.15z"/>
       <path id="svg_180" fill="#FFFFFF" d="m326.419,191.259l-168.497,0c-0.415,0 -0.755,-0.339 -0.755,-0.755l0,-3.53c0,-0.415 0.34,-0.754 0.754,-0.754l168.498,0c0.415,0 0.754,0.34 0.754,0.755l0,3.53c0.001,0.414 -0.339,0.754 -0.754,0.754z"/>
       <g id="svg_181">
        <path id="svg_182" fill="#3B3E7D" d="m116.572,188.739l0,1.868c0,0.536 -0.58,0.871 -1.044,0.603l-1.618,-0.934l-1.617,-0.934c-0.464,-0.268 -0.464,-0.937 0,-1.205l1.617,-0.934l1.618,-0.934c0.464,-0.268 1.044,0.067 1.044,0.603l0,1.867z"/>
       </g>
       <g id="svg_183">
        <path id="svg_184" fill="#3B3E7D" d="m124.988,188.739l0,1.868c0,0.536 0.58,0.871 1.044,0.603l1.618,-0.934l1.618,-0.934c0.464,-0.268 0.464,-0.937 0,-1.205l-1.618,-0.934l-1.618,-0.934c-0.464,-0.268 -1.044,0.067 -1.044,0.603l0,1.867z"/>
       </g>
      </g>
      <path id="svg_185" fill="#B9D2F0" d="m401.487,182.62l-314.344,0c1.623,-2.329 4.323,-3.851 7.379,-3.851l299.59,0c3.056,0 5.755,1.523 7.375,3.851z"/>
     </g>
    </g>
   </g>
   <g id="svg_186">
    <g id="svg_187">
     <g id="svg_188">
      <path id="svg_189" fill="#007EFF" d="m275.922,155.444l-80.822,0c-5.479,0 -9.92,-4.441 -9.92,-9.92l0,-1.994c0,-5.479 4.441,-9.92 9.92,-9.92l80.822,0c5.479,0 9.92,4.441 9.92,9.92l0,1.994c0,5.479 -4.442,9.92 -9.92,9.92z"/>
     </g>
     <g id="svg_190">
      <g id="svg_191">
       <g id="svg_192">
        <g id="svg_193">
         <path id="svg_194" fill="#FFFFFF" d="m275.074,138.04c-3.577,0 -6.487,2.91 -6.487,6.487c0,3.577 2.91,6.487 6.487,6.487c3.577,0 6.487,-2.91 6.487,-6.487c0,-3.577 -2.91,-6.487 -6.487,-6.487zm0.261,8.882l0,-2.273l2.932,0c-0.018,0.803 -0.135,1.567 -0.346,2.273l-2.586,0zm1.838,2.589c0.476,-0.605 0.855,-1.3 1.127,-2.067l1.976,0c-0.835,1.485 -2.236,2.53 -3.884,2.901c0.278,-0.249 0.54,-0.528 0.781,-0.834zm0.571,-2.067c-0.245,0.638 -0.57,1.219 -0.969,1.728c-0.622,0.794 -1.243,1.198 -1.44,1.314l0,-3.042l2.409,0zm-2.409,-6.111l0,-2.765c0.077,0.003 0.155,0.008 0.232,0.015c0.325,0.275 1.342,1.218 2.034,2.751l-2.266,0l0,-0.001zm2.836,0c-0.232,-0.559 -0.526,-1.094 -0.874,-1.594c-0.252,-0.362 -0.527,-0.701 -0.821,-1.011c1.492,0.361 2.802,1.299 3.633,2.605l-1.938,0zm-2.836,2.795l0,-2.273l2.479,0c0.268,0.732 0.42,1.496 0.45,2.273l-2.929,0zm3.451,0c-0.028,-0.772 -0.169,-1.536 -0.418,-2.273l2.039,0c0.358,0.712 0.567,1.476 0.62,2.273l-2.241,0zm2.252,0.522c-0.016,0.79 -0.184,1.554 -0.501,2.273l-2.072,0c0.199,-0.71 0.308,-1.474 0.325,-2.273l2.248,0zm-9.293,2.272l-2.133,0c-0.317,-0.719 -0.485,-1.483 -0.501,-2.273l2.309,0c0.017,0.799 0.126,1.563 0.325,2.273zm0.862,-5.589c0.201,-0.448 0.444,-0.879 0.725,-1.284c0.545,-0.786 1.091,-1.283 1.316,-1.473c0.055,-0.004 0.11,-0.007 0.165,-0.009l0,2.765l-2.206,0l0,0.001zm2.207,0.522l0,2.273l-2.868,0c0.031,-0.774 0.182,-1.538 0.449,-2.273l2.419,0zm-4.774,-0.522c0.847,-1.331 2.185,-2.275 3.71,-2.623c-0.3,0.315 -0.581,0.661 -0.838,1.029c-0.348,0.499 -0.642,1.035 -0.874,1.594l-1.998,0zm4.774,3.317l0,2.273l-2.526,0c-0.212,-0.703 -0.328,-1.467 -0.346,-2.273l2.872,0zm-5.691,-0.522c0.053,-0.796 0.261,-1.56 0.62,-2.273l2.099,0c-0.25,0.737 -0.39,1.501 -0.419,2.273l-2.3,0zm2.787,3.316c0.272,0.767 0.651,1.463 1.127,2.067c0.246,0.313 0.514,0.598 0.8,0.851c-1.662,-0.354 -3.124,-1.428 -3.964,-2.918l2.037,0zm2.904,0l0,3.005c-0.395,-0.246 -1.627,-1.136 -2.347,-3.005l2.347,0z"/>
        </g>
       </g>
      </g>
     </g>
    </g>
    <g id="svg_195">
     <g id="svg_196">
      <path id="svg_197" fill="#FFFFFF" d="m258.687,138.293c3.401,0 6.168,2.767 6.168,6.168c0,3.401 -2.767,6.168 -6.168,6.168l-62.354,0c-3.401,0 -6.168,-2.767 -6.168,-6.168c0,-3.401 2.767,-6.168 6.168,-6.168l62.354,0m0,-0.638l-62.354,0c-3.753,0 -6.807,3.053 -6.807,6.807c0,3.753 3.053,6.807 6.807,6.807l62.354,0c3.753,0 6.806,-3.053 6.806,-6.807c0,-3.754 -3.053,-6.807 -6.806,-6.807l0,0z"/>
     </g>
    </g>
   </g>
   <g id="svg_198">
    <g id="svg_199">
     <path id="svg_200" fill="#D9E4F5" d="m368.538,219.753l0,113.591c0,4.04 -3.276,7.316 -7.316,7.316l-230.655,0c-4.04,0 -7.316,-3.276 -7.316,-7.316l0,-113.591c0,-4.04 3.276,-7.316 7.316,-7.316l230.654,0c4.04,0 7.317,3.276 7.317,7.316z"/>
     <path id="svg_201" fill="#B4CAE3" d="m368.538,219.753l0,5.332l-245.287,0l0,-5.332c0,-4.04 3.276,-7.316 7.316,-7.316l230.654,0c4.04,0 7.317,3.276 7.317,7.316z"/>
     <g id="svg_202">
      <g id="svg_203">
       <path id="svg_204" fill="#3B3E7D" d="m344.976,218.637c0,1.37 -1.11,2.48 -2.48,2.48c-1.37,0 -2.48,-1.11 -2.48,-2.48c0,-1.37 1.11,-2.48 2.48,-2.48c1.37,0 2.48,1.111 2.48,2.48z"/>
      </g>
      <path id="svg_205" fill="#0060E6" d="m352.913,218.637c0,1.37 -1.11,2.48 -2.48,2.48c-1.37,0 -2.48,-1.11 -2.48,-2.48c0,-1.37 1.11,-2.48 2.48,-2.48c1.369,0 2.48,1.111 2.48,2.48z"/>
      <path id="svg_206" fill="#007EFF" d="m360.849,218.637c0,1.37 -1.11,2.48 -2.48,2.48c-1.37,0 -2.48,-1.11 -2.48,-2.48c0,-1.37 1.11,-2.48 2.48,-2.48c1.37,0 2.48,1.111 2.48,2.48z"/>
     </g>
    </g>
    <g id="svg_207">
     <path id="svg_208" fill="#B4CAE3" d="m154.586,261.792l-15.05,0c-2.556,0 -4.628,-2.072 -4.628,-4.628l0,-15.05c0,-2.556 2.072,-4.628 4.628,-4.628l15.05,0c2.556,0 4.628,2.072 4.628,4.628l0,15.05c-0.001,2.556 -2.073,4.628 -4.628,4.628z"/>
     <path id="svg_209" fill="#007EFF" d="m151.361,258.32l-15.05,0c-2.556,0 -4.628,-2.072 -4.628,-4.628l0,-15.05c0,-2.556 2.072,-4.628 4.628,-4.628l15.05,0c2.556,0 4.628,2.072 4.628,4.628l0,15.05c0,2.556 -2.072,4.628 -4.628,4.628z"/>
     <g id="svg_210">
      <path id="svg_211" fill="#FFFFFF" d="m148.297,243.935l-6.643,2.28l6.643,2.28l0,3.727l-11.181,-4.056l0,-3.902l11.181,-4.056l0,3.727z"/>
     </g>
    </g>
    <g id="svg_212">
     <path id="svg_213" fill="#B4CAE3" d="m194.732,261.792l-15.05,0c-2.556,0 -4.628,-2.072 -4.628,-4.628l0,-15.05c0,-2.556 2.072,-4.628 4.628,-4.628l15.05,0c2.556,0 4.627,2.072 4.627,4.628l0,15.05c0,2.556 -2.072,4.628 -4.627,4.628z"/>
     <path id="svg_214" fill="#007EFF" d="m191.507,258.32l-15.05,0c-2.556,0 -4.628,-2.072 -4.628,-4.628l0,-15.05c0,-2.556 2.072,-4.628 4.628,-4.628l15.05,0c2.556,0 4.628,2.072 4.628,4.628l0,15.05c0,2.556 -2.072,4.628 -4.628,4.628z"/>
     <g id="svg_215">
      <path id="svg_216" fill="#FFFFFF" d="m184.676,238.351l3.359,0l-5.542,15.821l-3.359,0l5.542,-15.821z"/>
     </g>
    </g>
    <g id="svg_217">
     <path id="svg_218" fill="#B4CAE3" d="m233.454,261.792l-15.05,0c-2.556,0 -4.628,-2.072 -4.628,-4.628l0,-15.05c0,-2.556 2.072,-4.628 4.628,-4.628l15.05,0c2.556,0 4.628,2.072 4.628,4.628l0,15.05c-0.001,2.556 -2.073,4.628 -4.628,4.628z"/>
     <path id="svg_219" fill="#007EFF" d="m230.229,258.32l-15.05,0c-2.556,0 -4.628,-2.072 -4.628,-4.628l0,-15.05c0,-2.556 2.072,-4.628 4.628,-4.628l15.05,0c2.556,0 4.628,2.072 4.628,4.628l0,15.05c0,2.556 -2.072,4.628 -4.628,4.628z"/>
     <g id="svg_220">
      <path id="svg_221" fill="#FFFFFF" d="m217.224,240.208l11.181,4.056l0,3.902l-11.181,4.056l0,-3.727l6.643,-2.28l-6.643,-2.28l0,-3.727z"/>
     </g>
    </g>
    <g id="svg_222">
     <path id="svg_223" fill="#B4CAE3" d="m353.99,329.996l-15.05,0c-2.556,0 -4.628,-2.072 -4.628,-4.628l0,-15.05c0,-2.556 2.072,-4.628 4.628,-4.628l15.05,0c2.556,0 4.628,2.072 4.628,4.628l0,15.05c-0.001,2.556 -2.073,4.628 -4.628,4.628z"/>
     <path id="svg_224" fill="#007EFF" d="m350.765,326.524l-15.05,0c-2.556,0 -4.628,-2.072 -4.628,-4.628l0,-15.05c0,-2.556 2.072,-4.628 4.628,-4.628l15.05,0c2.556,0 4.628,2.072 4.628,4.628l0,15.05c0,2.556 -2.072,4.628 -4.628,4.628z"/>
     <g id="svg_225">
      <g id="svg_226">
       <g id="svg_227">
        <g id="svg_228">
         <path id="svg_229" fill="#FFFFFF" d="m343.016,306.455c-4.371,0 -7.926,3.556 -7.926,7.927c0,4.37 3.556,7.926 7.926,7.926c4.371,0 7.927,-3.556 7.927,-7.926c-0.001,-4.372 -3.556,-7.927 -7.927,-7.927zm0.319,10.853l0,-2.777l3.583,0c-0.022,0.981 -0.164,1.915 -0.423,2.777l-3.16,0zm2.245,3.164c0.582,-0.739 1.045,-1.589 1.378,-2.526l2.414,0c-1.02,1.815 -2.733,3.091 -4.746,3.545c0.34,-0.304 0.66,-0.646 0.954,-1.019zm0.698,-2.526c-0.299,0.78 -0.697,1.49 -1.183,2.112c-0.76,0.97 -1.52,1.464 -1.76,1.605l0,-3.717l2.943,0zm-2.943,-7.467l0,-3.379c0.094,0.004 0.189,0.01 0.284,0.018c0.396,0.336 1.64,1.488 2.485,3.361l-2.769,0zm3.465,0c-0.284,-0.682 -0.643,-1.337 -1.068,-1.948c-0.308,-0.442 -0.645,-0.856 -1.003,-1.236c1.823,0.442 3.424,1.588 4.439,3.183l-2.368,0l0,0.001zm-3.465,3.414l0,-2.777l3.029,0c0.328,0.895 0.513,1.828 0.55,2.777l-3.579,0zm4.217,0c-0.035,-0.943 -0.207,-1.877 -0.512,-2.777l2.491,0c0.438,0.87 0.692,1.804 0.757,2.777l-2.736,0zm2.751,0.638c-0.019,0.965 -0.225,1.899 -0.612,2.777l-2.532,0c0.243,-0.868 0.376,-1.802 0.397,-2.777l2.747,0zm-11.356,2.777l-2.606,0c-0.387,-0.878 -0.593,-1.812 -0.612,-2.777l2.821,0c0.021,0.975 0.155,1.909 0.397,2.777zm1.053,-6.829c0.245,-0.547 0.543,-1.074 0.886,-1.569c0.666,-0.96 1.333,-1.568 1.608,-1.799c0.067,-0.005 0.134,-0.008 0.202,-0.011l0,3.379l-2.696,0zm2.697,0.637l0,2.777l-3.505,0c0.037,-0.946 0.222,-1.879 0.549,-2.777l2.956,0zm-5.833,-0.637c1.035,-1.626 2.67,-2.78 4.534,-3.205c-0.366,0.385 -0.71,0.807 -1.024,1.257c-0.425,0.61 -0.784,1.265 -1.068,1.948l-2.442,0zm5.833,4.052l0,2.777l-3.087,0c-0.258,-0.859 -0.4,-1.792 -0.422,-2.777l3.509,0zm-6.954,-0.638c0.064,-0.972 0.319,-1.906 0.758,-2.777l2.565,0c-0.305,0.9 -0.477,1.834 -0.512,2.777l-2.811,0zm3.405,4.053c0.332,0.938 0.796,1.787 1.378,2.526c0.301,0.382 0.629,0.73 0.977,1.04c-2.031,-0.432 -3.818,-1.745 -4.843,-3.566l2.488,0zm3.549,0l0,3.672c-0.482,-0.301 -1.988,-1.388 -2.868,-3.672l2.868,0z"/>
        </g>
       </g>
      </g>
     </g>
    </g>
    <g id="svg_230">
     <path id="svg_231" fill="#B4CAE3" d="m235.283,274.824l-100.801,0c-1.546,0 -2.798,-1.253 -2.798,-2.798l0,0c0,-1.546 1.253,-2.798 2.798,-2.798l100.801,0c1.546,0 2.798,1.253 2.798,2.798l0,0c0,1.546 -1.253,2.798 -2.798,2.798z"/>
     <path id="svg_232" fill="#B4CAE3" d="m235.283,285.188l-100.801,0c-1.546,0 -2.798,-1.253 -2.798,-2.798l0,0c0,-1.546 1.253,-2.798 2.798,-2.798l100.801,0c1.546,0 2.798,1.253 2.798,2.798l0,0c0,1.545 -1.253,2.798 -2.798,2.798z"/>
     <path id="svg_233" fill="#B4CAE3" d="m235.283,295.552l-100.801,0c-1.546,0 -2.798,-1.253 -2.798,-2.798l0,0c0,-1.545 1.253,-2.798 2.798,-2.798l100.801,0c1.546,0 2.798,1.253 2.798,2.798l0,0c0,1.545 -1.253,2.798 -2.798,2.798z"/>
     <path id="svg_234" fill="#B4CAE3" d="m235.283,305.915l-100.801,0c-1.546,0 -2.798,-1.253 -2.798,-2.798l0,0c0,-1.545 1.253,-2.798 2.798,-2.798l100.801,0c1.546,0 2.798,1.253 2.798,2.798l0,0c0,1.545 -1.253,2.798 -2.798,2.798z"/>
     <path id="svg_235" fill="#B4CAE3" d="m235.283,316.279l-100.801,0c-1.546,0 -2.798,-1.253 -2.798,-2.798l0,0c0,-1.545 1.253,-2.798 2.798,-2.798l100.801,0c1.546,0 2.798,1.253 2.798,2.798l0,0c0,1.545 -1.253,2.798 -2.798,2.798z"/>
     <path id="svg_236" fill="#B4CAE3" d="m235.283,326.642l-100.801,0c-1.546,0 -2.798,-1.253 -2.798,-2.798l0,0c0,-1.545 1.253,-2.798 2.798,-2.798l100.801,0c1.546,0 2.798,1.253 2.798,2.798l0,0c0,1.546 -1.253,2.798 -2.798,2.798z"/>
    </g>
    <g id="svg_237">
     <path id="svg_238" fill="#B4CAE3" d="m321.841,300.319l-68.694,0c-1.541,0 -2.862,1.205 -2.891,2.746c-0.029,1.569 1.235,2.851 2.798,2.851l68.786,0c1.545,0 2.798,-1.253 2.798,-2.798l0,0c0.002,-1.547 -1.251,-2.799 -2.797,-2.799z"/>
     <path id="svg_239" fill="#B4CAE3" d="m321.841,310.682l-68.694,0c-1.541,0 -2.862,1.205 -2.891,2.746c-0.029,1.569 1.235,2.851 2.798,2.851l68.786,0c1.545,0 2.798,-1.253 2.798,-2.798l0,0c0.002,-1.546 -1.251,-2.799 -2.797,-2.799z"/>
     <path id="svg_240" fill="#B4CAE3" d="m321.841,321.046l-68.694,0c-1.541,0 -2.862,1.205 -2.891,2.746c-0.029,1.569 1.235,2.851 2.798,2.851l68.786,0c1.545,0 2.798,-1.253 2.798,-2.798l0,0c0.002,-1.546 -1.251,-2.799 -2.797,-2.799z"/>
    </g>
    <g id="svg_241">
     <path id="svg_242" fill="#B4CAE3" d="m355.393,237.431l0,51.909c0,0.109 -0.005,0.218 -0.013,0.324c-0.05,0.584 -0.231,1.123 -0.513,1.584c-0.551,0.908 -1.489,1.506 -2.55,1.506l-99.178,0c-1.2,0 -2.238,-0.76 -2.742,-1.872c-0.214,-0.464 -0.335,-0.989 -0.335,-1.542l0,-51.909c0,-0.422 0.068,-0.824 0.194,-1.199c0.184,-0.542 0.488,-1.02 0.875,-1.391c0.538,-0.514 1.24,-0.827 2.007,-0.827l99.178,0c0.614,0 1.185,0.198 1.663,0.542c0.448,0.318 0.818,0.766 1.064,1.294c0.225,0.474 0.35,1.011 0.35,1.581z"/>
     <g id="svg_243">
      <path id="svg_244" fill="#D9E4F5" d="m355.381,289.663c-0.05,0.584 -0.231,1.123 -0.513,1.584l-52.581,-27.653l-1.763,-0.928l-50.267,-26.435c0.184,-0.542 0.488,-1.02 0.875,-1.391l51.155,26.899l1.761,0.927l0.003,0l51.33,26.997z"/>
     </g>
     <g id="svg_245">
      <path id="svg_246" fill="#D9E4F5" d="m355.044,235.849l-50.994,26.818l-0.003,0l-1.761,0.928l-51.889,27.287c-0.214,-0.464 -0.335,-0.989 -0.335,-1.542l0,-0.137l50.461,-26.535l1.763,-0.927l51.693,-27.184c0.448,0.317 0.818,0.764 1.065,1.292z"/>
     </g>
    </g>
   </g>
   <g id="svg_247">
    <ellipse id="svg_248" fill="#D9E4F5" ry="7.904" rx="40.535" cy="463.855" cx="95.231"/>
    <g id="svg_249">
     <path id="svg_250" fill="#00A0FF" d="m72.453,331.58l-5.823,3.592c-2.499,-1.551 -5.339,-2.458 -8.249,-2.657c-0.522,-1.403 -0.819,-2.985 -0.819,-4.763c0,-14.379 11.335,-40.941 11.335,-40.941l-1.034,29.676c-0.757,7.567 1.68,12.24 4.59,15.093z"/>
     <g id="svg_251">
      <path id="svg_252" fill="#0060E6" d="m89.009,321.362l-22.38,13.809c-5.588,-3.468 -12.88,-3.716 -18.853,-0.027c-7.453,4.599 -10.355,13.772 -7.313,21.658c0.391,1.019 0.883,2.013 1.476,2.976c5.195,8.415 16.221,11.027 24.637,5.835c2.989,-1.844 5.242,-4.421 6.677,-7.359c1.437,-2.935 2.048,-6.23 1.752,-9.505l78.8,-48.621l0.919,1.492l19.45,-0.569l9.162,-16.996l0.06,-0.116l-1.561,-3.098l-4.98,2.508l-1.048,0.528l-0.777,0.29l-5.257,9.749l-11.071,0.325l-2.909,-4.713l-2.907,-4.714l0.167,-0.308l5.09,-9.441l11.071,-0.325l3.976,-7.379l-3.332,0.098l-16.117,0.471l-9.233,17.128l0.919,1.492l-56.418,34.812zm-27.216,20.451l3.356,5.444l1.751,2.838l-4.616,8.562l-9.725,0.284l-5.109,-8.277l0.167,-0.308l4.45,-8.258l9.726,-0.285z"/>
      <path id="svg_253" fill="#007EFF" d="m89.009,321.362l-22.38,13.809c-5.588,-3.468 -12.88,-3.716 -18.853,-0.027c-7.453,4.599 -10.355,13.772 -7.313,21.658c5.236,8.282 16.17,10.823 24.529,5.666c2.988,-1.844 5.242,-4.422 6.677,-7.359c1.437,-2.935 2.048,-6.23 1.752,-9.505l78.8,-48.621l0.919,1.492l19.45,-0.569l7.484,-13.887l1.748,-3.243l-8.377,0.246l-5.257,9.749l-11.071,0.325l-2.909,-4.713l-1.155,-1.876l-1.751,-2.838l5.257,-9.749l11.071,-0.325l2.228,-4.136l-16.117,0.471l-9.233,17.128l0.919,1.492l-56.418,34.812zm-28.8,17.306l5.108,8.281l-0.167,0.308l-4.449,8.254l-9.725,0.285l-3.358,-5.44l-1.751,-2.838l4.617,-8.566l9.725,-0.284z"/>
     </g>
     <g id="svg_254">
      <g id="svg_255">
       <path id="svg_256" fill="#007EFF" d="m99.648,260.587c0,1.837 1.495,3.333 3.333,3.333c1.837,0 3.333,-1.496 3.333,-3.333c0,-0.233 -0.023,-0.462 -0.07,-0.683c-0.047,-0.216 -0.112,-0.426 -0.197,-0.626c0,0 0,0 -0.002,-0.002c-0.509,-1.188 -1.691,-2.022 -3.063,-2.022c-0.21,0 -0.418,0.019 -0.617,0.059l-0.002,0c-0.359,0.066 -0.698,0.191 -1.006,0.365c-1.019,0.572 -1.709,1.662 -1.709,2.909zm0.52,0c0,-1.239 0.806,-2.295 1.922,-2.666c0.28,-0.095 0.579,-0.146 0.891,-0.146c0.218,0 0.431,0.025 0.634,0.074c0.494,0.112 0.942,0.359 1.298,0.698c0.369,0.348 0.643,0.796 0.781,1.298c0.066,0.238 0.1,0.486 0.1,0.742c0,1.551 -1.262,2.813 -2.813,2.813c-1.551,0 -2.813,-1.262 -2.813,-2.813z"/>
      </g>
      <g id="svg_257">
       <path id="svg_258" fill="#FB9A83" d="m86.115,270.708l0,6.625c0,0 1.975,3.375 4.648,3.604c2.669,0.233 5.042,-2.904 5.042,-2.904l0,-6.858l-9.69,-0.467z"/>
       <path id="svg_259" fill="#FF6D6B" d="m93.139,272.31c0,0 0.429,2.348 2.667,3.207l0,-3.042l-2.667,-0.165z"/>
      </g>
      <path id="svg_260" fill="#FB9A83" d="m95.051,273.618c-9.977,2.823 -13.251,-4.886 -14.646,-9.767c-0.154,-0.542 -0.294,-1.145 -0.415,-1.788c-0.005,-0.025 -0.009,-0.052 -0.016,-0.081c-0.135,-0.723 -0.253,-1.492 -0.352,-2.285c-0.075,-0.587 -0.138,-1.183 -0.194,-1.784c-0.142,-1.458 -0.235,-2.921 -0.296,-4.22c-0.142,-2.967 1.635,-5.696 4.414,-6.762c4.005,-1.54 10.086,-2.759 15.847,0.508c2.129,1.206 3.463,3.441 3.511,5.886c0,0 1.006,3.909 0.529,5.662c-0.477,1.753 -0.583,2.284 -0.743,4.617c-0.159,2.333 -1.485,7.955 -2.864,9.122c-1.378,1.166 -4.775,0.892 -4.775,0.892z"/>
      <g id="svg_261">
       <g id="svg_262">
        <g id="svg_263">
         <g id="svg_264">
          <path id="svg_265" fill="#FF6D6B" d="m98.762,263.277c-0.134,-0.03 -0.238,-0.146 -0.246,-0.29c-0.117,-2.133 -2.016,-3.41 -2.035,-3.422c-0.145,-0.095 -0.185,-0.291 -0.09,-0.436c0.095,-0.145 0.29,-0.185 0.435,-0.09c0.089,0.059 2.183,1.458 2.318,3.914c0.009,0.173 -0.124,0.322 -0.297,0.332c-0.029,0 -0.058,-0.002 -0.085,-0.008z"/>
         </g>
        </g>
       </g>
       <g id="svg_266">
        <g id="svg_267">
         <g id="svg_268">
          <path id="svg_269" fill="#FF6D6B" d="m96.887,261.798c-0.057,-0.013 -0.111,-0.041 -0.155,-0.086c-0.122,-0.124 -0.121,-0.323 0.003,-0.445c0.021,-0.02 0.513,-0.5 1.36,-0.673c0.17,-0.035 0.336,0.075 0.371,0.245c0.035,0.17 -0.075,0.337 -0.245,0.371c-0.654,0.134 -1.04,0.5 -1.043,0.504c-0.08,0.079 -0.19,0.107 -0.291,0.084z"/>
         </g>
        </g>
       </g>
      </g>
      <g id="svg_270">
       <path id="svg_271" fill="#021147" d="m78.78,258.389c0.404,5.288 2.721,10.991 2.721,10.991c2.532,5.585 7.245,4.562 9.792,3.798c1.862,-0.559 4.386,-2.625 5.417,-3.574c0.791,-0.728 1.268,-1.805 1.548,-2.698c0.205,-0.655 -0.268,-1.306 -0.951,-1.371c-1.187,-0.114 -2.423,-1.121 -2.719,-3.917c-0.503,-4.743 2.662,-4.747 2.662,-4.747c1.918,-0.17 2.937,2.234 2.937,2.234s1.181,-1.537 0.937,-4.064c-0.214,-2.217 2.021,-0.637 2.021,-0.637s3.14,-2.73 3.211,-5.417c0.071,-2.687 -1.495,-2.794 -2.904,-3.483c-1.409,-0.689 1.843,-3.234 0.288,-4.578c-1.556,-1.343 -3.323,-1.485 -4.596,-0.778c-1.273,0.707 -1.698,-2.758 -3.642,-2.828c-1.944,-0.071 -3.181,2.051 -4.543,1.202c-1.361,-0.848 -4.826,-2.121 -6.382,0.495c-1.556,2.616 -1.98,3.288 -3.253,3.429c-1.273,0.141 -4.808,2.581 -4.101,6.611c0.709,4.029 1.321,6.244 1.557,9.332z"/>
      </g>
      <g id="svg_272">
       <path id="svg_273" fill="#007EFF" d="m98.049,256.947c0.329,0.098 0.619,0.267 0.874,0.471c0.639,-0.074 1.313,-0.008 1.979,0.144c0.153,0.036 0.303,0.074 0.454,0.117c0.248,0.072 0.494,0.153 0.734,0.242c0.498,0.182 0.982,0.401 1.428,0.626c0.94,0.473 1.723,0.984 2.177,1.298c0.267,0.187 0.422,0.305 0.431,0.312l0.119,-0.252c-0.047,-0.216 -0.112,-0.426 -0.197,-0.626c0,0 0,0 -0.002,-0.002c-0.261,-0.182 -0.651,-0.443 -1.131,-0.73c-0.382,-0.227 -0.821,-0.469 -1.298,-0.698c-0.017,-0.008 -0.034,-0.017 -0.053,-0.025c-0.378,-0.182 -0.781,-0.354 -1.199,-0.509l-0.002,0c-0.424,-0.155 -0.866,-0.289 -1.311,-0.386c-1.007,-0.224 -2.042,-0.27 -3.003,0.018z"/>
      </g>
     </g>
     <g id="svg_274">
      <g id="svg_275">
       <path id="svg_276" fill="#007EFF" d="m111.411,468.061c0.727,0.097 1.611,0.144 2.355,-0.026l1.106,-0.359l1.816,-0.548c0,0 6.525,-2.562 8.836,-4.808c2.31,-2.246 1.898,-4.719 -1.704,-5.924c-3.602,-1.205 -6.821,-0.064 -8.747,-0.834c0,0 -5.766,0.485 -5.445,3.566c-0.074,2.867 -0.245,4.385 0.138,7.282c0.114,0.857 0.788,1.536 1.645,1.651z"/>
       <g id="svg_277">
        <path id="svg_278" fill="#FFFFFF" d="m114.602,456.938c-0.099,-0.022 -0.19,-0.082 -0.247,-0.175c-0.111,-0.181 -0.054,-0.418 0.127,-0.529c0.061,-0.037 1.498,-0.907 2.76,-0.861c1.682,0.061 2.296,1.369 2.321,1.425c0.088,0.193 0.003,0.421 -0.19,0.509c-0.193,0.088 -0.421,0.003 -0.509,-0.19c-0.017,-0.035 -0.454,-0.93 -1.65,-0.975c-1.033,-0.038 -2.317,0.74 -2.33,0.748c-0.088,0.054 -0.189,0.068 -0.282,0.048z"/>
       </g>
       <g id="svg_279">
        <path id="svg_280" fill="#FFFFFF" d="m115.896,456.795c-0.099,-0.021 -0.189,-0.082 -0.247,-0.175c-0.111,-0.181 -0.054,-0.418 0.127,-0.529c0.061,-0.037 1.498,-0.907 2.76,-0.86c1.682,0.061 2.296,1.369 2.321,1.425c0.088,0.193 0.003,0.421 -0.19,0.509c-0.193,0.088 -0.421,0.003 -0.509,-0.19c-0.017,-0.035 -0.455,-0.93 -1.65,-0.975c-1.033,-0.038 -2.317,0.74 -2.33,0.748c-0.088,0.053 -0.189,0.067 -0.282,0.047z"/>
       </g>
       <g id="svg_281">
        <path id="svg_282" fill="#FFFFFF" d="m117.161,456.532c-0.099,-0.022 -0.189,-0.082 -0.247,-0.175c-0.111,-0.181 -0.054,-0.418 0.127,-0.529c0.061,-0.037 1.498,-0.907 2.76,-0.861c1.682,0.061 2.296,1.369 2.321,1.425c0.088,0.193 0.003,0.421 -0.19,0.509c-0.193,0.088 -0.421,0.003 -0.509,-0.19c-0.017,-0.035 -0.455,-0.93 -1.65,-0.975c-1.033,-0.038 -2.317,0.74 -2.33,0.748c-0.088,0.054 -0.189,0.068 -0.282,0.048z"/>
       </g>
      </g>
      <path id="svg_283" fill="#FB9A83" d="m116.404,451.598l-0.353,6.057c-2.24,0.619 -3.922,0.905 -5.192,-0.083l-0.362,-6.424l5.907,0.45z"/>
      <g id="svg_284">
       <g id="svg_285">
        <path id="svg_286" fill="#3B3E7D" d="m118.242,454.106c-3.347,2.067 -8.717,0.86 -8.717,0.86c0.641,-0.114 -4.68,-39.926 -5.381,-45.921c-0.646,-5.533 -7.544,-21.598 -10.443,-30.712c-0.202,-0.633 -0.382,-1.233 -0.543,-1.794c-0.227,-0.799 -0.444,-1.561 -0.649,-2.279c-1.282,-4.463 -2.124,-7.301 -2.124,-7.301l19.14,-4.184c0.569,2.148 1.106,4.264 1.615,6.355c0.111,0.457 0.22,0.912 0.328,1.365c0.067,0.287 0.134,0.574 0.202,0.858c11.738,49.862 6.572,82.753 6.572,82.753z"/>
       </g>
       <g id="svg_287">
        <path id="svg_288" fill="#18285D" d="m111.469,370.494c-6.575,2.406 -13.005,3.494 -18.959,3.765c-1.282,-4.463 -2.124,-7.301 -2.124,-7.301l19.14,-4.184c0.569,2.148 1.106,4.264 1.615,6.355c0.111,0.458 0.219,0.913 0.328,1.365z"/>
       </g>
      </g>
     </g>
     <g id="svg_289">
      <g id="svg_290">
       <path id="svg_291" fill="#007EFF" d="m61.789,466.73c0.671,0.297 1.507,0.589 2.269,0.634l1.163,-0.035l1.896,-0.018c0,0 6.981,-0.637 9.827,-2.147c2.846,-1.511 3.141,-4.001 0.019,-6.164c-3.122,-2.164 -6.532,-1.968 -8.165,-3.246c0,0 -5.672,-1.146 -6.225,1.902c-0.872,2.732 -1.461,4.142 -1.903,7.03c-0.13,0.854 0.327,1.694 1.119,2.044z"/>
       <g id="svg_292">
        <path id="svg_293" fill="#FFFFFF" d="m67.961,456.943c-0.089,-0.048 -0.159,-0.132 -0.188,-0.237c-0.056,-0.205 0.065,-0.416 0.27,-0.472c0.068,-0.019 1.691,-0.453 2.891,-0.055c1.598,0.529 1.822,1.956 1.831,2.017c0.031,0.21 -0.115,0.405 -0.325,0.436c-0.21,0.031 -0.405,-0.115 -0.436,-0.325c-0.006,-0.039 -0.176,-1.02 -1.312,-1.398c-0.981,-0.325 -2.432,0.063 -2.447,0.067c-0.099,0.026 -0.2,0.012 -0.284,-0.033z"/>
       </g>
       <g id="svg_294">
        <path id="svg_295" fill="#FFFFFF" d="m69.243,457.167c-0.089,-0.048 -0.159,-0.131 -0.188,-0.237c-0.056,-0.205 0.065,-0.416 0.27,-0.472c0.069,-0.019 1.692,-0.453 2.891,-0.055c1.598,0.529 1.822,1.956 1.83,2.017c0.031,0.21 -0.115,0.405 -0.325,0.436c-0.21,0.031 -0.406,-0.115 -0.436,-0.325c-0.006,-0.039 -0.176,-1.02 -1.312,-1.398c-0.981,-0.325 -2.432,0.063 -2.447,0.067c-0.098,0.027 -0.199,0.012 -0.283,-0.033z"/>
       </g>
       <g id="svg_296">
        <path id="svg_297" fill="#FFFFFF" d="m70.531,457.267c-0.089,-0.048 -0.159,-0.131 -0.188,-0.237c-0.056,-0.205 0.065,-0.416 0.27,-0.472c0.068,-0.019 1.692,-0.453 2.891,-0.055c1.598,0.529 1.822,1.956 1.831,2.017c0.031,0.21 -0.115,0.405 -0.325,0.436c-0.21,0.031 -0.406,-0.115 -0.436,-0.325c-0.006,-0.039 -0.176,-1.02 -1.312,-1.398c-0.981,-0.326 -2.432,0.063 -2.446,0.067c-0.1,0.027 -0.201,0.013 -0.285,-0.033z"/>
       </g>
      </g>
      <path id="svg_298" fill="#FB9A83" d="m71.184,452.319l-2.032,5.717c-2.323,-0.031 -4.018,-0.227 -4.962,-1.531l1.448,-6.27l5.546,2.084z"/>
      <g id="svg_299">
       <g id="svg_300">
        <path id="svg_301" fill="#3B3E7D" d="m89.403,365.111c-0.054,2.223 -0.132,4.404 -0.227,6.554c-0.039,0.871 -0.083,1.76 -0.134,2.664c-0.088,1.553 -0.191,3.15 -0.31,4.773c-0.936,12.966 -2.757,27.604 -4.171,34.946c-0.938,4.869 -12.312,41.192 -12.312,41.192c-3.739,1.034 -8.479,-1.538 -8.608,-1.61c0.651,0 5.417,-43.598 6.918,-46.787c0.943,-2.005 0.083,-7.288 -0.623,-29.847c-0.031,-1.044 -0.065,-2.124 -0.096,-3.243c-0.021,-0.737 -0.036,-1.442 -0.047,-2.114c-0.08,-4.789 0.062,-7.859 0.062,-7.859l19.548,1.331z"/>
       </g>
       <g id="svg_302">
        <path id="svg_303" fill="#18285D" d="m69.855,363.78l19.548,1.331c-0.054,2.223 -0.132,4.404 -0.227,6.554c-0.039,0.871 -0.083,1.76 -0.134,2.664c-7.619,-0.036 -14.292,-1.323 -19.248,-2.69c-0.081,-4.789 0.061,-7.859 0.061,-7.859z"/>
       </g>
      </g>
     </g>
     <g id="svg_304">
      <g id="svg_305">
       <path id="svg_306" fill="#00A0FF" d="m111.469,363.887c0,0 -11.663,4.579 -22.065,4.631c-10.402,0.049 -20.362,-0.943 -20.362,-0.943s-0.871,-15.723 -1.439,-33.289c-0.036,-1.15 -0.072,-2.308 -0.106,-3.468c-0.039,-1.287 -0.072,-2.582 -0.108,-3.874c-0.029,-1.155 -0.057,-2.313 -0.083,-3.466c-0.034,-1.481 -0.062,-2.954 -0.088,-4.414c-0.021,-1.166 -0.036,-2.318 -0.052,-3.46c-0.16,-13.245 -0.788,-25.178 1.341,-27.857c4.377,-5.506 17.609,-11.04 17.609,-11.04c2.938,0.832 6.248,1.11 10.005,0.723c0,0 7.407,5.596 12.599,9.382c4.101,2.99 0.865,13.673 1.093,28.339c0.015,1.119 0.036,2.259 0.057,3.414c0.008,0.372 0.015,0.749 0.023,1.127c0.021,1.016 0.047,2.114 0.078,3.274c0.028,1.083 0.059,2.223 0.096,3.404c0.036,1.243 0.075,2.53 0.119,3.851c0.036,1.116 0.072,2.256 0.114,3.406c0.479,14.183 1.169,30.26 1.169,30.26z"/>
      </g>
      <g id="svg_307">
       <path id="svg_308" fill="#007EFF" d="m86.083,284.233c6.452,0.603 10.734,-2.825 10.929,-2.984c0.158,-0.129 0.182,-0.362 0.052,-0.52c-0.129,-0.158 -0.362,-0.182 -0.52,-0.053c-0.049,0.04 -5.036,4.019 -12.141,2.559c-0.199,-0.041 -0.396,0.088 -0.437,0.288c-0.041,0.2 0.088,0.396 0.288,0.437c0.627,0.129 1.238,0.218 1.829,0.273z"/>
      </g>
      <g id="svg_309">
       <g id="svg_310">
        <path id="svg_311" fill="#007EFF" d="m109.869,318.565c-8.88,1.708 -16.798,2.287 -23.456,2.287c-8.903,0 -15.545,-1.036 -19.197,-1.788c-0.021,-1.166 -0.036,-2.318 -0.052,-3.46c5.575,1.191 21.466,3.706 42.647,-0.452c0.017,1.118 0.037,2.258 0.058,3.413z"/>
       </g>
       <g id="svg_312">
        <path id="svg_313" fill="#007EFF" d="m110.065,326.37c-8.96,1.739 -16.948,2.326 -23.652,2.326c-8.766,0 -15.338,-1.003 -19.026,-1.752c-0.029,-1.155 -0.057,-2.313 -0.083,-3.466c5.709,1.207 21.579,3.657 42.665,-0.512c0.029,1.083 0.06,2.223 0.096,3.404z"/>
       </g>
       <g id="svg_314">
        <path id="svg_315" fill="#007EFF" d="m110.298,333.627c-9.053,1.773 -17.121,2.37 -23.885,2.37c-8.598,0 -15.087,-0.964 -18.811,-1.711c-0.036,-1.15 -0.072,-2.308 -0.106,-3.468c5.887,1.222 21.729,3.587 42.688,-0.597c0.036,1.116 0.073,2.256 0.114,3.406z"/>
       </g>
      </g>
     </g>
     <path id="svg_316" fill="#00A0FF" d="m109.616,287.747c0,0 18.287,28.364 21.304,26.503c4.548,-2.806 8.437,-5.206 8.437,-5.206l4.3,-2.653c0,0 -2.554,16.621 -12.633,19.962c-6.325,2.097 -23.497,-19.5 -23.497,-19.5s0.001,-14.627 2.089,-19.106z"/>
    </g>
   </g>
   <g id="svg_317">
    <path id="svg_318" fill="#007EFF" d="m293.471,346.349c-19.517,-26.24 -31.843,-50.445 -31.843,-50.445l0.618,18.142c0,0 18.548,29.875 24.343,36.087c2.312,0.001 6.882,-0.785 6.882,-3.784z"/>
    <g id="svg_319">
     <path id="svg_320" fill="#00A0FF" d="m245.111,291.545c0,0 -3.221,0.864 -6.35,1.645c-2.878,0.719 -4.478,1.558 -4.478,1.558s-0.285,27.541 0,35.899c0.285,8.359 -2.424,16.029 -1.892,20.909c0,0 23.888,1.69 28.983,-0.333c0,0 -1.973,-21.504 0.254,-27.544c2.261,-6.133 3.447,-10.407 2.917,-12.907c-1.36,-6.418 -2.978,-7.378 -2.556,-13.287c0.422,-5.908 -16.878,-5.94 -16.878,-5.94z"/>
     <g id="svg_321">
      <path id="svg_322" fill="#007EFF" d="m255.455,301.491c-6.48,0 -10.425,-3.811 -10.604,-3.988c-0.145,-0.143 -0.147,-0.377 -0.004,-0.523s0.378,-0.147 0.523,-0.004c0.046,0.045 4.64,4.47 11.85,3.678c0.202,-0.022 0.386,0.124 0.408,0.327c0.022,0.203 -0.124,0.386 -0.327,0.408c-0.636,0.07 -1.252,0.102 -1.846,0.102z"/>
     </g>
     <g id="svg_323">
      <path id="svg_324" fill="#007EFF" d="m239.985,335.796c-0.198,0 -0.362,-0.157 -0.369,-0.357c-0.007,-0.204 0.152,-0.375 0.357,-0.383c0.099,-0.004 9.964,-0.46 16.739,-9.41c0.124,-0.163 0.356,-0.195 0.518,-0.072c0.163,0.123 0.195,0.356 0.072,0.518c-6.995,9.24 -17.201,9.699 -17.303,9.703c-0.005,0.001 -0.009,0.001 -0.014,0.001z"/>
     </g>
     <g id="svg_325">
      <path id="svg_326" fill="#007EFF" d="m239.664,339.3c-0.776,0 -1.227,-0.046 -1.249,-0.049c-0.203,-0.023 -0.349,-0.206 -0.326,-0.408c0.023,-0.203 0.205,-0.348 0.409,-0.327c0.099,0.012 9.924,1.001 17.935,-6.864c0.146,-0.143 0.38,-0.14 0.523,0.005c0.143,0.146 0.141,0.38 -0.005,0.523c-6.559,6.44 -14.31,7.12 -17.287,7.12z"/>
     </g>
    </g>
    <g id="svg_327">
     <g id="svg_328">
      <polygon id="svg_329" fill="#FB9A83" points="334.885,365.32 341.192,367.546 339.064,373.283 332.247,371.301     "/>
      <g id="svg_330">
       <g id="svg_331">
        <path id="svg_332" fill="#007EFF" d="m340.252,368.345c0,0 -1.388,-2.118 -0.894,-3.216s10.594,-7.27 12.256,-10.042c1.662,-2.772 3.645,-1.391 4.567,-0.434c0.922,0.957 -9.12,23.626 -9.12,23.626s-7.149,-1.892 -8.987,-3.424c-1.838,-1.532 1.826,-3.996 2.178,-6.51z"/>
        <g id="svg_333">
         <g id="svg_334">
          <path id="svg_335" fill="#FFFFFF" d="m346.838,365.301c-0.007,0.117 -0.06,0.231 -0.156,0.313c-0.188,0.159 -0.468,0.135 -0.626,-0.052c-0.053,-0.063 -1.301,-1.551 -1.471,-3.003c-0.227,-1.931 1.159,-2.866 1.219,-2.904c0.205,-0.135 0.481,-0.078 0.616,0.127c0.135,0.205 0.078,0.481 -0.128,0.616c-0.037,0.026 -0.983,0.683 -0.823,2.058c0.138,1.183 1.255,2.518 1.266,2.531c0.076,0.091 0.11,0.204 0.103,0.314z"/>
         </g>
         <g id="svg_336">
          <path id="svg_337" fill="#FFFFFF" d="m345.207,366.116c-0.007,0.117 -0.06,0.231 -0.157,0.313c-0.188,0.159 -0.468,0.135 -0.627,-0.052c-0.053,-0.063 -1.301,-1.551 -1.471,-3.003c-0.227,-1.933 1.159,-2.866 1.218,-2.905c0.205,-0.135 0.481,-0.078 0.616,0.127c0.135,0.205 0.078,0.481 -0.128,0.616c-0.037,0.026 -0.983,0.684 -0.823,2.058c0.139,1.188 1.255,2.518 1.266,2.531c0.079,0.092 0.113,0.204 0.106,0.315z"/>
         </g>
         <g id="svg_338">
          <path id="svg_339" fill="#FFFFFF" d="m348.41,363.963c-0.007,0.117 -0.06,0.231 -0.157,0.313c-0.188,0.159 -0.468,0.135 -0.627,-0.052c-0.053,-0.063 -1.302,-1.551 -1.471,-3.003c-0.228,-1.933 1.159,-2.866 1.219,-2.904c0.205,-0.135 0.481,-0.078 0.616,0.128c0.135,0.205 0.078,0.481 -0.128,0.616c-0.038,0.026 -0.983,0.684 -0.823,2.058c0.139,1.188 1.255,2.518 1.267,2.531c0.076,0.09 0.11,0.203 0.104,0.313z"/>
         </g>
        </g>
       </g>
      </g>
     </g>
     <g id="svg_340">
      <g id="svg_341">
       <g id="svg_342">
        <g id="svg_343">
         <g id="svg_344">
          <path id="svg_345" fill="#021147" d="m251.125,353.987c0,0 25.49,-7.423 38.248,-7.933c12.769,-0.504 47.142,18.471 47.142,18.471c0.821,1.995 0.284,4.21 -1.054,6.207c-0.19,0.288 -0.395,0.56 -0.614,0.817c-0.471,0.601 -1.014,1.155 -1.615,1.676c0,0 -25.377,-3.251 -42.33,-12.241c0,0 -23.804,5.928 -37.506,5.549c0,0.001 -5.652,-4.718 -2.271,-12.546"/>
         </g>
        </g>
       </g>
      </g>
     </g>
    </g>
    <g id="svg_346">
     <g id="svg_347">
      <ellipse id="svg_348" fill="#021147" ry="13.579" rx="13.579" cy="270.247" cx="251.366" transform="matrix(0.7071 -0.7071 0.7071 0.7071 -117.4704 256.896)"/>
      <circle id="svg_349" fill="#021147" r="8.321" cy="256.969" cx="246.408"/>
      <g id="svg_350">
       <path id="svg_351" fill="#FF6D6B" d="m261.105,273.999c0,0 2.063,-2.156 3.248,-0.097c1.185,2.059 -1.294,7.57 -4.512,5.859l1.264,-5.762z"/>
       <path id="svg_352" fill="#FFFFFF" d="m261.377,279.509c-0.032,0.338 0.216,0.638 0.554,0.671c0.338,0.032 0.638,-0.216 0.671,-0.554c0.032,-0.338 -0.216,-0.638 -0.554,-0.671c-0.338,-0.032 -0.638,0.216 -0.671,0.554z"/>
       <g id="svg_353">
        <g id="svg_354">
         <g id="svg_355">
          <path id="svg_356" fill="#ED495C" d="m260.74,278.072c0.124,0.012 0.245,-0.055 0.291,-0.171c0.687,-1.709 2.673,-2.238 2.693,-2.244c0.151,-0.039 0.239,-0.187 0.197,-0.331c-0.042,-0.144 -0.199,-0.23 -0.35,-0.191c-0.093,0.024 -2.28,0.601 -3.071,2.569c-0.056,0.139 0.018,0.296 0.165,0.35c0.024,0.009 0.049,0.015 0.075,0.018z"/>
         </g>
        </g>
       </g>
       <g id="svg_357">
        <g id="svg_358">
         <g id="svg_359">
          <path id="svg_360" fill="#ED495C" d="m262.759,277.371c0.052,0.005 0.107,-0.004 0.157,-0.028c0.139,-0.068 0.193,-0.231 0.12,-0.364c-0.012,-0.022 -0.304,-0.546 -0.985,-0.916c-0.136,-0.074 -0.31,-0.03 -0.387,0.1c-0.077,0.129 -0.028,0.295 0.109,0.369c0.526,0.286 0.757,0.689 0.759,0.693c0.047,0.084 0.134,0.137 0.227,0.146z"/>
         </g>
        </g>
       </g>
      </g>
      <path id="svg_361" fill="#FB9A83" d="m245.778,284.559l-0.667,6.987c0,0 3.008,2.816 5.521,3.275c2.51,0.462 3.67,-2.441 3.67,-2.441l0.621,-6.503l-9.145,-1.318z"/>
      <path id="svg_362" fill="#FF6D6B" d="m245.713,285.243l-0.266,2.787c1.52,2.049 4.474,3.005 9.005,2.772l0.406,-4.241l-9.145,-1.318z"/>
      <path id="svg_363" fill="#FB9A83" d="m261.957,276.761c-0.145,0.667 -0.306,1.344 -0.493,2.016c-1.236,4.467 -4.579,9.1 -8.286,9.577c-8.005,1.03 -10.672,-5.435 -11.491,-10.095c-0.09,-0.518 0.225,-1.07 0.172,-1.678c-0.124,-1.44 -0.543,-3.102 -0.521,-4.699c0.015,-1.107 0.055,-2.197 0.103,-3.18c0.137,-2.773 1.978,-5.158 4.572,-5.91c3.739,-1.089 9.317,-1.701 14.208,1.832c1.806,1.305 2.809,3.497 2.635,5.776c-0.134,1.741 -0.395,4.008 -0.899,6.361z"/>
      <g id="svg_364">
       <g id="svg_365">
        <g id="svg_366">
         <path id="svg_367" fill="#FF6D6B" d="m252.059,279.364c-0.146,-0.014 -0.265,-0.131 -0.276,-0.282c-0.012,-0.168 0.115,-0.315 0.283,-0.327l1.062,-0.076l-1.074,-3.973c-0.044,-0.163 0.052,-0.331 0.215,-0.375c0.163,-0.043 0.331,0.052 0.375,0.215l1.268,4.689l-1.802,0.129c-0.017,0.001 -0.034,0.001 -0.051,0z"/>
        </g>
       </g>
      </g>
      <g id="svg_368">
       <path id="svg_369" fill="#021147" d="m259.67,268.819c2.93,1.69 2.034,6.306 1.835,9.81c-0.008,0.137 0.759,-2.497 0.837,-2.551c0.524,-2.397 0.79,-4.708 0.926,-6.482c0.176,-2.323 -0.888,-4.561 -2.796,-5.898c-5.166,-3.619 -11.042,-3.013 -14.979,-1.915c-2.731,0.759 -4.664,3.184 -4.799,6.011c-0.047,1.003 -0.085,2.114 -0.098,3.242c0.48,0.351 1.708,0.608 1.682,1.43c-0.069,2.174 -0.234,5.859 0.223,5.743c0.534,-0.135 1.161,-5.079 0.932,-6.659c0,0 0.809,-1.073 3.767,-1.9c3.795,-1.061 7.518,-2.813 7.518,-2.813s1.47,-0.704 2.09,-1.566c0.002,-0.001 0.631,2.262 2.862,3.548z"/>
      </g>
      <g id="svg_370">
       <path id="svg_371" fill="#021147" d="m256.634,274.791c-0.064,0.671 0.23,1.247 0.656,1.288c0.426,0.041 0.824,-0.47 0.888,-1.14c0.064,-0.671 -0.23,-1.247 -0.656,-1.288c-0.427,-0.041 -0.825,0.47 -0.888,1.14z"/>
      </g>
      <g id="svg_372">
       <path id="svg_373" fill="#021147" d="m247.545,273.947c-0.064,0.671 0.23,1.247 0.656,1.288c0.426,0.041 0.824,-0.47 0.888,-1.14c0.064,-0.671 -0.23,-1.247 -0.656,-1.288c-0.427,-0.042 -0.825,0.469 -0.888,1.14z"/>
      </g>
      <g id="svg_374">
       <path id="svg_375" fill="#021147" d="m259.195,271.446c-0.609,-0.18 -1.845,-0.5 -3.186,-0.58c-0.353,-0.021 -0.66,0.217 -0.638,0.501l0.001,0.007c0.017,0.227 0.243,0.4 0.526,0.406c0.918,0.018 3.299,0.261 4.376,0.697c0.046,-0.158 -0.045,-0.339 -0.187,-0.503c-0.217,-0.248 -0.537,-0.422 -0.892,-0.528z"/>
      </g>
      <g id="svg_376">
       <path id="svg_377" fill="#021147" d="m246.772,270.407c0.631,-0.07 1.904,-0.168 3.238,-0.011c0.351,0.041 0.612,0.33 0.54,0.606l-0.002,0.007c-0.057,0.221 -0.309,0.351 -0.589,0.307c-0.907,-0.143 -3.293,-0.323 -4.431,-0.083c-0.018,-0.163 0.104,-0.325 0.273,-0.462c0.256,-0.207 0.602,-0.323 0.971,-0.364z"/>
      </g>
      <path id="svg_378" fill="#FFFFFF" d="m255.261,281.498c-0.327,1.046 -1.264,2.937 -3.791,2.696c-2.532,-0.242 -3.071,-2.104 -3.197,-3.363l6.988,0.667z"/>
      <g id="svg_379">
       <path id="svg_380" fill="#FF6D6B" d="m251.331,286.031c0.729,0.07 1.41,-0.262 1.439,-0.276c0.148,-0.073 0.21,-0.253 0.136,-0.401c-0.073,-0.148 -0.252,-0.209 -0.401,-0.137l0,0c-0.006,0.003 -0.561,0.27 -1.117,0.217c-0.602,-0.058 -1.11,-0.428 -1.115,-0.431c-0.134,-0.098 -0.321,-0.07 -0.419,0.063c-0.098,0.133 -0.071,0.32 0.062,0.419c0.025,0.019 0.643,0.473 1.415,0.546z"/>
      </g>
     </g>
     <g id="svg_381">
      <path id="svg_382" fill="#FB9A83" d="m242.232,272.178c0,0 -1.892,-2.802 -3.334,-1.049c-1.442,1.752 -0.184,7.453 3.037,6.398l0.297,-5.349z"/>
      <path id="svg_383" fill="#FFFFFF" d="m239.979,277.466c-0.032,0.338 0.216,0.638 0.554,0.671c0.338,0.032 0.638,-0.216 0.671,-0.554c0.032,-0.338 -0.216,-0.638 -0.554,-0.671c-0.338,-0.032 -0.639,0.216 -0.671,0.554z"/>
      <g id="svg_384">
       <path id="svg_385" fill="#FF6D6B" d="m241.423,275.754c-0.114,-0.011 -0.212,-0.097 -0.233,-0.215c-0.316,-1.753 -2.019,-2.615 -2.036,-2.623c-0.13,-0.064 -0.183,-0.221 -0.119,-0.351c0.064,-0.13 0.221,-0.183 0.351,-0.12c0.08,0.039 1.957,0.982 2.321,3.001c0.026,0.143 -0.069,0.279 -0.212,0.305c-0.025,0.004 -0.049,0.005 -0.072,0.003z"/>
      </g>
      <g id="svg_386">
       <g id="svg_387">
        <g id="svg_388">
         <path id="svg_389" fill="#FF6D6B" d="m239.719,274.723c-0.049,-0.005 -0.096,-0.023 -0.137,-0.055c-0.114,-0.09 -0.133,-0.255 -0.044,-0.369c0.015,-0.019 0.374,-0.466 1.056,-0.697c0.137,-0.047 0.286,0.027 0.333,0.165c0.046,0.137 -0.027,0.286 -0.165,0.333c-0.528,0.178 -0.809,0.521 -0.812,0.525c-0.057,0.072 -0.145,0.106 -0.231,0.098z"/>
        </g>
       </g>
      </g>
     </g>
     <g id="svg_390">
      <g id="svg_391">
       <path id="svg_392" fill="#FFFFFF" d="m251.724,273.402c0.018,-0.181 -0.005,-0.359 -0.062,-0.522c-0.152,-0.448 -0.549,-0.792 -1.05,-0.851l-4.425,-0.522c-0.348,-0.041 -0.678,0.063 -0.933,0.264c-0.14,0.11 -0.255,0.249 -0.338,0.41c-0.07,0.133 -0.118,0.279 -0.136,0.435l-0.067,0.566c-0.113,0.959 0.155,1.918 0.735,2.636c0.579,0.712 1.287,1.131 2.106,1.245l0.117,0.014c0.947,0.112 1.881,-0.15 2.633,-0.741c0.764,-0.598 1.246,-1.458 1.36,-2.423l0.057,-0.478c0.002,-0.01 0.004,-0.023 0.003,-0.033zm-0.58,0.45c-0.097,0.825 -0.51,1.559 -1.161,2.07c-0.643,0.505 -1.441,0.728 -2.248,0.633l-0.106,-0.013c-0.682,-0.096 -1.277,-0.45 -1.769,-1.055c-0.493,-0.607 -0.719,-1.426 -0.623,-2.243l0.067,-0.565c0.048,-0.407 0.416,-0.697 0.823,-0.649l4.425,0.522c0.405,0.048 0.697,0.416 0.649,0.823l-0.057,0.477z"/>
      </g>
      <g id="svg_393">
       <path id="svg_394" fill="#FFFFFF" d="m261.095,274.198c-0.025,-0.178 -0.092,-0.346 -0.187,-0.495c-0.199,-0.304 -0.526,-0.523 -0.914,-0.568l-4.427,-0.522c-0.513,-0.06 -0.992,0.195 -1.239,0.616c-0.084,0.14 -0.141,0.299 -0.163,0.469c-0.003,0.009 -0.004,0.016 -0.005,0.024l-0.067,0.565c-0.113,0.959 0.157,1.919 0.737,2.636c0.578,0.712 1.287,1.131 2.104,1.245l0.118,0.014c0.947,0.112 1.881,-0.15 2.633,-0.741c0.762,-0.598 1.247,-1.458 1.36,-2.422l0.056,-0.479c0.017,-0.115 0.015,-0.23 -0.006,-0.342zm-0.569,0.76c-0.097,0.825 -0.51,1.559 -1.163,2.07c-0.642,0.505 -1.439,0.728 -2.247,0.633l-0.108,-0.013c-0.682,-0.096 -1.277,-0.451 -1.769,-1.055c-0.491,-0.607 -0.719,-1.426 -0.623,-2.243l0.067,-0.566c0.048,-0.407 0.418,-0.697 0.823,-0.649l4.427,0.522c0.405,0.048 0.697,0.416 0.649,0.823l-0.056,0.478z"/>
      </g>
      <g id="svg_395">
       <path id="svg_396" fill="#FFFFFF" d="m245.255,271.771c-0.42,-0.275 -1.528,-0.881 -3.169,-0.948l0.136,0.537c1.363,0.092 2.308,0.581 2.696,0.821c0.128,0.079 0.196,0.131 0.199,0.133l0.326,-0.411c-0.014,-0.011 -0.077,-0.061 -0.188,-0.132z"/>
      </g>
      <g id="svg_397">
       <path id="svg_398" fill="#FFFFFF" d="m251.544,273.434l-0.113,-0.513c0.032,-0.007 0.795,-0.172 1.6,-0.078c0.857,0.101 1.378,0.429 1.399,0.443l-0.283,0.443c-0.004,-0.002 -0.448,-0.278 -1.178,-0.364c-0.714,-0.085 -1.418,0.067 -1.425,0.069z"/>
      </g>
      <g id="svg_399">
       <path id="svg_400" fill="#FFFFFF" d="m262.583,273.413c-0.997,0.049 -1.837,0.34 -1.891,0.36l0.174,0.495c0.014,-0.004 0.877,-0.303 1.849,-0.332l-0.132,-0.523z"/>
      </g>
     </g>
    </g>
    <g id="svg_401">
     <g id="svg_402">
      <polygon id="svg_403" fill="#FB9A83" points="279.78,400.575 277.519,407.276 271.601,406.717 273.608,399.585     "/>
      <g id="svg_404">
       <g id="svg_405">
        <path id="svg_406" fill="#007EFF" d="m277.102,407.046c0,0 1.506,-2.036 2.708,-1.952c1.201,0.083 10.488,7.423 13.663,8.022c3.176,0.599 2.566,2.938 1.988,4.134c-0.578,1.196 -25.322,-0.377 -25.322,-0.377s-0.7,-7.362 0.101,-9.617c0.802,-2.255 4.381,0.33 6.862,-0.21z"/>
        <g id="svg_407">
         <g id="svg_408">
          <path id="svg_409" fill="#FFFFFF" d="m282.238,412.171c-0.112,0.034 -0.238,0.024 -0.348,-0.038c-0.214,-0.121 -0.289,-0.392 -0.168,-0.606c0.04,-0.072 1.005,-1.758 2.308,-2.419c1.733,-0.882 3.09,0.096 3.147,0.138c0.198,0.145 0.24,0.424 0.094,0.622c-0.146,0.197 -0.424,0.24 -0.622,0.093c-0.037,-0.026 -0.981,-0.686 -2.216,-0.06c-1.062,0.539 -1.928,2.049 -1.936,2.065c-0.059,0.103 -0.153,0.173 -0.259,0.205z"/>
         </g>
         <g id="svg_410">
          <path id="svg_411" fill="#FFFFFF" d="m280.909,410.923c-0.112,0.034 -0.238,0.023 -0.348,-0.039c-0.214,-0.121 -0.289,-0.392 -0.168,-0.606c0.04,-0.072 1.005,-1.758 2.308,-2.419c1.735,-0.882 3.09,0.095 3.147,0.137c0.198,0.146 0.24,0.424 0.094,0.622c-0.145,0.198 -0.424,0.24 -0.622,0.093c-0.037,-0.026 -0.982,-0.686 -2.216,-0.06c-1.066,0.541 -1.928,2.049 -1.936,2.064c-0.059,0.105 -0.153,0.176 -0.259,0.208z"/>
         </g>
         <g id="svg_412">
          <path id="svg_413" fill="#FFFFFF" d="m284.038,413.182c-0.112,0.034 -0.237,0.024 -0.348,-0.039c-0.214,-0.121 -0.289,-0.392 -0.168,-0.606c0.04,-0.071 1.005,-1.758 2.308,-2.419c1.734,-0.883 3.09,0.095 3.147,0.138c0.197,0.146 0.239,0.424 0.093,0.622c-0.145,0.197 -0.424,0.24 -0.622,0.093c-0.037,-0.026 -0.982,-0.685 -2.216,-0.06c-1.066,0.541 -1.928,2.049 -1.936,2.064c-0.059,0.104 -0.153,0.175 -0.258,0.207z"/>
         </g>
        </g>
       </g>
      </g>
     </g>
     <g id="svg_414">
      <path id="svg_415" fill="#3B3E7D" d="m232.041,354.527c-0.323,2.739 0.138,5.532 1.43,7.969c1.905,3.592 6.007,7.352 14.844,6.888c18.818,-0.989 32.09,0 32.09,0s-1.96,6.347 -4.07,15.564c-1.24,5.416 -5.118,18.561 -5.118,18.561c2.551,1.501 5.264,1.116 7.987,0.617c0,0 19.543,-33.522 17.838,-44.424c-1.704,-10.902 -64.652,-8.144 -64.652,-8.144l-0.349,2.969z"/>
     </g>
    </g>
    <g id="svg_416">
     <path id="svg_417" fill="#007EFF" d="m271.218,345.843c-8.862,-5.593 -22.901,-16.251 -22.901,-16.251s-8.835,-17.101 -14.033,-34.844c0,0 -5.897,6.801 -1.807,22.019c3.985,14.827 10.393,20.15 10.393,20.15s16.379,11.733 25.049,14.639c1.365,-2.284 2.043,-3.366 3.299,-5.713z"/>
    </g>
    <g id="svg_418">
     <path id="svg_419" fill="#0060E6" d="m311.978,352.7l-55.54,0.733c-0.994,0.013 -1.81,-0.782 -1.823,-1.775l-0.012,-0.873c-0.013,-0.994 0.782,-1.81 1.775,-1.823l55.54,-0.733c0.994,-0.013 1.81,0.782 1.823,1.775l0.012,0.874c0.014,0.993 -0.781,1.809 -1.775,1.822z"/>
     <g id="svg_420">
      <g id="svg_421">
       <polygon id="svg_422" fill="#00A0FF" points="313.778,352.676 265.322,353.315 279.754,326.712 328.122,326.233      "/>
       <polygon id="svg_423" fill="#0060E6" points="310.77,352.707 310.765,352.716 262.398,353.194 276.741,326.751 279.75,326.72        265.409,353.155      "/>
      </g>
      <path id="svg_424" fill="#007EFF" d="m300.457,339.645c0.023,1.702 -1.339,3.1 -3.041,3.122c-1.702,0.022 -3.1,-1.339 -3.122,-3.041c-0.022,-1.702 1.339,-3.1 3.041,-3.122c1.702,-0.022 3.1,1.339 3.122,3.041z"/>
     </g>
    </g>
   </g>
   <g id="svg_425">
    <ellipse id="svg_426" fill="#D9E4F5" ry="7.904" rx="40.535" cy="437.087" cx="438.235"/>
    <g id="svg_427">
     <g id="svg_428">
      <g id="svg_429">
       <path id="svg_430" fill="#007EFF" d="m411.237,353.552l0,81.918c0,1.801 1.459,3.26 3.26,3.26l47.477,0c0.908,0 1.728,-0.371 2.318,-0.969c0.584,-0.587 0.943,-1.395 0.943,-2.291l0,-81.918c0,-1.801 -1.459,-3.26 -3.26,-3.26l-47.477,0c-0.645,0 -1.243,0.187 -1.748,0.508c-0.909,0.578 -1.513,1.594 -1.513,2.752z"/>
       <g id="svg_431">
        <path id="svg_432" fill="#00A0FF" d="m426.031,366.09l31.705,0c1.239,0 2.244,-1.004 2.244,-2.244l0,0c0,-1.239 -1.005,-2.244 -2.244,-2.244l-31.705,0c-1.239,0 -2.244,1.005 -2.244,2.244l0,0c0,1.24 1.005,2.244 2.244,2.244z"/>
        <path id="svg_433" fill="#00A0FF" d="m426.031,376.312l31.705,0c1.239,0 2.244,-1.004 2.244,-2.244l0,0c0,-1.239 -1.005,-2.244 -2.244,-2.244l-31.705,0c-1.239,0 -2.244,1.004 -2.244,2.244l0,0c0,1.239 1.005,2.244 2.244,2.244z"/>
        <path id="svg_434" fill="#00A0FF" d="m426.031,386.534l31.705,0c1.239,0 2.244,-1.005 2.244,-2.244l0,0c0,-1.239 -1.005,-2.244 -2.244,-2.244l-31.705,0c-1.239,0 -2.244,1.005 -2.244,2.244l0,0c0,1.239 1.005,2.244 2.244,2.244z"/>
        <path id="svg_435" fill="#00A0FF" d="m426.031,396.755l31.705,0c1.239,0 2.244,-1.005 2.244,-2.244l0,0c0,-1.239 -1.005,-2.244 -2.244,-2.244l-31.705,0c-1.239,0 -2.244,1.005 -2.244,2.244l0,0c0,1.24 1.005,2.244 2.244,2.244z"/>
        <path id="svg_436" fill="#00A0FF" d="m426.031,406.977l31.705,0c1.239,0 2.244,-1.005 2.244,-2.244l0,0c0,-1.239 -1.005,-2.244 -2.244,-2.244l-31.705,0c-1.239,0 -2.244,1.005 -2.244,2.244l0,0c0,1.24 1.005,2.244 2.244,2.244z"/>
        <path id="svg_437" fill="#00A0FF" d="m426.031,417.199l31.705,0c1.239,0 2.244,-1.004 2.244,-2.244l0,0c0,-1.239 -1.005,-2.244 -2.244,-2.244l-31.705,0c-1.239,0 -2.244,1.005 -2.244,2.244l0,0c0,1.24 1.005,2.244 2.244,2.244z"/>
        <path id="svg_438" fill="#00A0FF" d="m426.031,427.421l31.705,0c1.239,0 2.244,-1.005 2.244,-2.244l0,0c0,-1.239 -1.005,-2.244 -2.244,-2.244l-31.705,0c-1.239,0 -2.244,1.005 -2.244,2.244l0,0c0,1.239 1.005,2.244 2.244,2.244z"/>
       </g>
       <g id="svg_439">
        <g id="svg_440">
         <path id="svg_441" fill="#021147" d="m417.378,362.563c0,0.531 0.43,0.961 0.961,0.961c0.531,0 0.961,-0.43 0.961,-0.961c0,-0.531 -0.43,-0.961 -0.961,-0.961c-0.531,0 -0.961,0.431 -0.961,0.961z"/>
        </g>
        <path id="svg_442" fill="#00A0FF" d="m417.378,365.129c0,0.531 0.43,0.961 0.961,0.961c0.531,0 0.961,-0.43 0.961,-0.961s-0.43,-0.961 -0.961,-0.961c-0.531,0 -0.961,0.431 -0.961,0.961z"/>
        <path id="svg_443" fill="#FFFFFF" d="m417.378,372.785c0,0.531 0.43,0.961 0.961,0.961c0.531,0 0.961,-0.43 0.961,-0.961s-0.43,-0.961 -0.961,-0.961c-0.531,0 -0.961,0.43 -0.961,0.961z"/>
        <path id="svg_444" fill="#00A0FF" d="m417.378,375.351c0,0.531 0.43,0.961 0.961,0.961c0.531,0 0.961,-0.43 0.961,-0.961c0,-0.531 -0.43,-0.961 -0.961,-0.961c-0.531,0 -0.961,0.43 -0.961,0.961z"/>
        <path id="svg_445" fill="#FFFFFF" d="m417.378,393.229c0,0.531 0.43,0.961 0.961,0.961c0.531,0 0.961,-0.43 0.961,-0.961c0,-0.531 -0.43,-0.961 -0.961,-0.961c-0.531,0 -0.961,0.43 -0.961,0.961z"/>
        <path id="svg_446" fill="#00A0FF" d="m417.378,395.795c0,0.531 0.43,0.961 0.961,0.961c0.531,0 0.961,-0.43 0.961,-0.961c0,-0.531 -0.43,-0.961 -0.961,-0.961c-0.531,0 -0.961,0.43 -0.961,0.961z"/>
        <g id="svg_447">
         <path id="svg_448" fill="#021147" d="m417.378,383.007c0,0.531 0.43,0.961 0.961,0.961c0.531,0 0.961,-0.43 0.961,-0.961s-0.43,-0.961 -0.961,-0.961c-0.531,0 -0.961,0.43 -0.961,0.961z"/>
        </g>
        <path id="svg_449" fill="#00A0FF" d="m417.378,385.573c0,0.531 0.43,0.961 0.961,0.961c0.531,0 0.961,-0.43 0.961,-0.961c0,-0.531 -0.43,-0.961 -0.961,-0.961c-0.531,0 -0.961,0.43 -0.961,0.961z"/>
       </g>
       <g id="svg_450">
        <g id="svg_451">
         <path id="svg_452" fill="#021147" d="m417.378,403.45c0,0.531 0.43,0.961 0.961,0.961c0.531,0 0.961,-0.43 0.961,-0.961c0,-0.531 -0.43,-0.961 -0.961,-0.961c-0.531,0.001 -0.961,0.431 -0.961,0.961z"/>
        </g>
        <path id="svg_453" fill="#00A0FF" d="m417.378,406.017c0,0.531 0.43,0.961 0.961,0.961c0.531,0 0.961,-0.43 0.961,-0.961c0,-0.531 -0.43,-0.961 -0.961,-0.961c-0.531,0 -0.961,0.43 -0.961,0.961z"/>
        <path id="svg_454" fill="#FFFFFF" d="m417.378,413.672c0,0.531 0.43,0.961 0.961,0.961c0.531,0 0.961,-0.43 0.961,-0.961s-0.43,-0.961 -0.961,-0.961c-0.531,0 -0.961,0.431 -0.961,0.961z"/>
        <path id="svg_455" fill="#00A0FF" d="m417.378,416.238c0,0.531 0.43,0.961 0.961,0.961c0.531,0 0.961,-0.43 0.961,-0.961c0,-0.531 -0.43,-0.961 -0.961,-0.961c-0.531,0.001 -0.961,0.431 -0.961,0.961z"/>
        <g id="svg_456">
         <path id="svg_457" fill="#021147" d="m417.378,423.894c0,0.531 0.43,0.961 0.961,0.961c0.531,0 0.961,-0.43 0.961,-0.961c0,-0.531 -0.43,-0.961 -0.961,-0.961c-0.531,0 -0.961,0.43 -0.961,0.961z"/>
        </g>
        <path id="svg_458" fill="#00A0FF" d="m417.378,426.46c0,0.531 0.43,0.961 0.961,0.961c0.531,0 0.961,-0.43 0.961,-0.961c0,-0.531 -0.43,-0.961 -0.961,-0.961c-0.531,0 -0.961,0.431 -0.961,0.961z"/>
       </g>
       <path id="svg_459" fill="#0060E6" d="m421.535,350.292l33.4,0l0,0c0,-2.041 -1.655,-3.696 -3.696,-3.696l-26.007,0c-2.042,0 -3.697,1.655 -3.697,3.696l0,0z"/>
      </g>
     </g>
     <g id="svg_460">
      <polygon id="svg_461" fill="#00A0FF" points="418.593,268.675 418.593,270.895 437.187,270.895 437.187,346.596 439.407,346.596       439.407,268.675     "/>
     </g>
    </g>
   </g>
   <g id="svg_462">
    <path id="svg_463" fill="#0060E6" d="m441.11,269.785c0,1.588 -1.287,2.875 -2.875,2.875c-1.588,0 -2.875,-1.287 -2.875,-2.875c0,-1.588 1.287,-2.875 2.875,-2.875c1.588,0 2.875,1.287 2.875,2.875z"/>
   </g>
  </g>
 </g>
</svg>